<svg width="150" height="150" viewBox="0 0 150 150" fill="none" xmlns="http://www.w3.org/2000/svg">
<circle cx="75" cy="75" r="75" fill="#2E51FF"/>
<path d="M114.533 76.5076C114.483 76.4664 114.41 76.4533 114.353 76.4723C114.284 76.4935 114.221 76.512 114.161 76.5294L114.132 76.5379C113.985 76.5809 113.857 76.6178 113.731 76.6683C111.74 77.4581 110.172 78.8113 108.938 80.805C108.633 81.2976 108.397 81.8096 108.209 82.3203C108.517 80.6027 108.589 79.9335 108.643 78.0116C108.646 77.9309 108.646 77.8489 108.646 77.7675C108.646 77.5451 108.646 77.3351 108.695 77.1435C108.753 76.9164 108.87 76.6899 108.984 76.4707C109.016 76.4087 109.048 76.3467 109.074 76.2922C109.083 76.2815 109.113 76.2635 109.124 76.2617C109.694 76.1749 110.198 75.9335 110.665 75.5239C111.135 75.1092 111.522 74.6015 111.815 74.0146C112.866 71.911 113.392 69.5858 113.378 67.1045C113.377 66.8652 113.349 66.6321 113.318 66.3787C113.304 66.2652 113.29 66.149 113.278 66.0288C113.271 65.9628 113.23 65.9041 113.171 65.8756C113.113 65.8475 113.043 65.8494 112.984 65.8849C112.949 65.9071 112.918 65.9251 112.891 65.9412C112.837 65.9729 112.797 65.9977 112.758 66.0254C111.861 66.6668 111.071 67.4654 110.407 68.3983C109.325 69.9231 108.696 71.6472 108.526 73.544C108.509 73.3326 108.492 73.1211 108.475 72.9097L108.469 72.833C108.403 72.0041 108.334 71.1469 108.278 70.304C108.264 70.0905 108.223 69.8829 108.183 69.6819C108.106 69.2957 108.034 68.9309 108.15 68.5487C108.176 68.4623 108.198 68.3753 108.221 68.2885C108.276 68.0735 108.54 67.7424 108.947 67.3804L108.962 67.3667C109.112 67.2399 109.882 66.5368 110.318 65.1462C110.762 63.7333 110.728 62.2571 110.704 61.1791L110.703 61.1504C110.671 59.6686 110.51 58.552 110.183 57.5293C110.141 57.3985 110.09 57.2695 110.037 57.134C110.01 57.0634 109.981 56.9905 109.952 56.9142C109.929 56.8496 109.871 56.8027 109.805 56.7916L109.772 56.7886C109.714 56.7886 109.66 56.8146 109.623 56.8593L109.305 57.2459C107.781 59.1011 107.033 61.2768 107.079 63.7129C107.088 64.1419 107.12 64.582 107.177 65.0364C106.789 63.7022 106.335 62.4035 105.819 61.1542C105.808 61.1268 105.801 61.0929 105.8 61.0642L105.797 60.8934C105.791 60.6469 105.786 60.3919 105.796 60.141C105.798 60.0994 105.825 60.0247 105.881 59.9512C105.961 59.8459 106.049 59.7431 106.141 59.6361C106.297 59.4546 106.459 59.2671 106.586 59.0531C106.998 58.3647 107.192 57.5515 107.195 56.4936C107.2 55.2481 107.008 53.9376 106.589 52.3688C106.36 51.5129 106.014 50.4011 105.37 49.3931C105.326 49.3253 105.277 49.2615 105.225 49.1939C105.202 49.164 105.177 49.1321 105.152 49.0978C105.116 49.0489 105.065 49.0203 104.984 49.0203C104.919 49.0251 104.861 49.062 104.828 49.1192C104.02 50.5755 103.617 52.1312 103.598 53.8753C103.582 55.3296 103.81 56.5809 104.095 57.5699C103.369 56.2461 102.562 54.967 101.688 53.7537L101.668 53.7261C101.648 53.6998 101.639 53.6869 101.641 53.696C101.586 53.3035 101.548 52.9894 101.521 52.7159C101.522 52.7118 101.527 52.6888 101.568 52.6206C101.626 52.5223 101.689 52.426 101.756 52.3242C101.891 52.1193 102.031 51.9073 102.12 51.6699C102.39 50.9533 102.45 50.1407 102.305 49.1864C101.985 47.0743 101.052 45.1724 99.4534 43.3717C99.2888 43.1869 99.107 43.0234 98.9146 42.8506L98.8614 42.8024C98.7862 42.7345 98.7089 42.6649 98.6309 42.5914C98.5813 42.5442 98.5102 42.5266 98.4413 42.5468C98.3762 42.5674 98.326 42.6213 98.3105 42.6883L98.2755 42.8413C98.2517 42.9427 98.2333 43.0228 98.2196 43.1032C98.0044 44.3853 98.0201 45.7585 98.2678 47.3017C98.5136 48.8323 99.0033 50.1524 99.7548 51.2991C98.6279 49.9739 97.5319 48.861 96.3864 47.8748C96.3812 47.8681 96.3737 47.8477 96.3731 47.8425C96.4626 47.0727 96.2724 46.3474 95.7912 45.6254C95.1593 44.6764 94.2812 43.9531 93.1814 43.476C92.5233 43.191 91.8413 42.9388 91.1737 42.6917C90.8539 42.5732 90.534 42.4551 90.2047 42.3285C89.8737 42.1971 89.7322 42.1737 89.6553 42.2446C89.5565 42.3366 89.5803 42.415 89.6234 42.5577L89.6373 42.6043C90.0409 43.9612 90.5765 45.0345 91.2751 45.8851C92.5576 47.4484 94.0575 48.2426 95.8581 48.3127C95.9212 48.3165 95.9713 48.3339 95.9917 48.3498C96.2452 48.5392 96.4318 48.6908 96.5968 48.841C97.1185 49.317 97.6323 49.8241 98.135 50.3581C97.3873 49.8944 96.4735 49.6852 95.4444 49.7371C94.8811 49.7654 94.3221 49.8478 93.7815 49.9275L93.7609 49.9307C93.6011 49.954 93.442 49.9772 93.2834 49.9996C92.936 50.0466 92.5858 50.108 92.2765 50.1619C92.1512 50.1843 91.852 50.2523 91.7832 50.3971C91.7593 50.4467 91.7613 50.501 91.7883 50.5503C91.8121 50.5933 91.8383 50.6337 91.8669 50.6706C92.7597 51.8268 93.7781 52.5883 94.9804 52.9983C96.4463 53.5008 97.7927 53.4594 99.0026 52.8683C99.1876 52.7667 99.4107 52.7151 99.6656 52.7151C99.858 52.7151 100.002 52.7455 100.05 52.7564C100.122 52.7682 100.219 52.8083 100.239 52.834C100.991 53.8214 101.705 54.876 102.372 55.9839C101.809 55.437 101.074 55.0682 100.073 54.8281C99.1959 54.6194 98.299 54.5746 97.4318 54.531L97.1414 54.5164C96.8694 54.5025 96.5974 54.4853 96.3173 54.4676L95.8476 54.4387C95.7868 54.4387 95.7291 54.468 95.6937 54.5168C95.6546 54.5693 95.6453 54.6374 95.6683 54.6987C95.6872 54.7498 95.7215 54.84 95.7392 54.8701C96.6538 56.3971 97.7278 57.4532 99.0222 58.0992C100.288 58.7301 101.431 58.897 102.584 58.6217C102.718 58.5896 102.872 58.5726 103.032 58.5726C103.523 58.5726 103.865 58.722 103.937 58.8603C104.571 60.1667 105.137 61.5243 105.626 62.909C105.113 62.2042 104.397 61.6317 103.49 61.2035C102.589 60.779 101.651 60.3911 100.728 60.0092C100.332 59.8455 99.9334 59.6813 99.537 59.5132C99.478 59.4875 99.4083 59.4928 99.3533 59.5291C99.2993 59.565 99.2672 59.6248 99.2672 59.6892C99.2672 59.8128 100.583 63.4591 102.495 64.8959C103.275 65.4821 104.235 66.085 105.447 66.1134C105.809 66.1207 106.184 66.1718 106.467 66.493C106.51 66.5442 106.568 66.584 106.63 66.6052C106.727 66.6369 106.753 66.696 106.801 66.8973C107.193 68.5412 107.479 70.2356 107.655 71.9562C107.602 71.7816 107.54 71.6052 107.469 71.4267C107.041 70.3438 106.321 69.3962 105.203 68.4445C104.627 67.9519 104.023 67.4749 103.44 67.0134L103.412 66.9916C103.146 66.7814 102.881 66.5719 102.616 66.3599C102.562 66.3161 102.509 66.2709 102.447 66.2182L102.282 66.0771C102.224 66.0284 102.138 66.0183 102.071 66.0519C102.001 66.087 101.96 66.1595 101.965 66.237C101.973 66.3533 101.98 66.4633 101.986 66.5689L101.989 66.6183C102.002 66.8357 102.015 67.0407 102.037 67.2433C102.243 69.2151 102.831 70.8614 103.832 72.276C104.452 73.1504 105.342 74.2193 106.729 74.7248C107.066 74.8484 107.311 75.0357 107.573 75.3718C107.821 75.6864 107.867 75.974 107.861 76.3358C107.838 77.8515 107.729 79.3551 107.539 80.8276C107.494 80.4178 107.399 79.9959 107.254 79.5576C106.954 78.65 106.486 77.7677 105.823 76.8601C105.251 76.0742 104.655 75.2856 104.08 74.5225L104.041 74.4715C103.813 74.1694 103.585 73.8668 103.363 73.5707C103.321 73.5099 103.261 73.4881 103.226 73.476C103.177 73.452 103.118 73.4497 103.066 73.4719C103.015 73.4937 102.975 73.5367 102.958 73.5894L102.951 73.61C102.942 73.6377 102.934 73.6623 102.93 73.6869C102.533 76.05 102.777 78.1673 103.675 80.1604C104.113 81.1349 104.702 82.2382 105.739 83.032C106.212 83.3945 106.586 83.9029 106.791 84.4635C106.835 84.5842 106.833 84.6365 106.828 84.6567C106.389 86.4714 105.816 88.2217 105.119 89.8783C105.298 89.0052 105.286 88.0882 105.081 87.138C104.79 85.7913 104.29 84.4863 103.845 83.3687L103.711 83.034C103.502 82.5103 103.292 81.9824 103.074 81.4353C103.047 81.3654 102.98 81.3176 102.891 81.3132C102.821 81.3132 102.757 81.3531 102.724 81.4177L102.654 81.5492C102.623 81.6069 102.594 81.6606 102.569 81.7161C101.673 83.7361 101.37 85.8068 101.67 87.8708C101.884 89.3466 102.247 90.4034 102.848 91.2975C103.158 91.7596 103.454 92.2744 103.507 92.9075C103.52 93.0573 103.514 93.1605 103.447 93.278C102.69 94.6015 101.841 95.8505 100.911 97.0109C100.915 97.0045 100.918 96.9982 100.922 96.9919C101.591 95.7718 101.611 94.4527 101.542 93.323C101.484 92.3546 101.372 91.3876 101.265 90.4527L101.259 90.3986C101.216 90.0241 101.173 89.6498 101.134 89.2747C101.111 89.0621 101.086 88.8495 101.06 88.6337L101.026 88.3416C101.018 88.277 100.979 88.2211 100.922 88.193C100.816 88.1379 100.646 88.2229 100.461 88.4409C99.1922 89.9387 98.4048 91.6314 98.1205 93.472C97.8257 95.3805 97.9855 97.0136 98.6097 98.4649C98.6264 98.5036 98.6259 98.5824 98.6257 98.6088L98.5922 99.4438C98.5872 99.5039 98.5555 99.5716 98.5293 99.5968C97.2623 100.815 95.8674 101.873 94.3705 102.755C95.0791 102.115 95.5885 101.281 95.9187 100.224C96.2845 99.0529 96.4723 97.8336 96.6544 96.6514L96.6703 96.5462C96.7348 96.1309 96.8021 95.7163 96.8708 95.2927L96.9484 94.8137C96.9595 94.744 96.9319 94.6742 96.8777 94.6324C96.8239 94.5896 96.7461 94.5793 96.6842 94.6059L96.6165 94.6338C96.5442 94.6633 96.4813 94.6897 96.4219 94.72C93.5921 96.1307 91.7294 99.4208 91.9926 102.543C92.0339 103.032 91.989 103.491 91.8552 103.946C91.8427 103.988 91.8026 104.033 91.7863 104.04C90.4423 104.606 89.1644 105.019 87.8785 105.302C87.8124 105.317 87.76 105.364 87.7386 105.428C87.7169 105.492 87.7301 105.562 87.7741 105.614C87.9139 105.779 88.0356 105.957 88.1356 106.143C88.1767 106.219 88.2746 106.258 88.3479 106.239C89.3955 106.001 90.4157 105.692 91.3811 105.32C91.4592 105.289 91.5187 105.274 91.5745 105.283C91.7893 105.312 92.0162 105.356 92.2682 105.418C92.3202 105.431 92.3633 105.455 92.364 105.453C92.9144 106.548 93.8601 107.245 95.2564 107.585C95.5601 107.657 95.8734 107.711 96.1875 107.744C96.5162 107.779 96.8829 107.796 97.277 107.796C97.8229 107.796 98.2122 107.763 98.217 107.762C99.4272 107.627 100.461 107.355 101.376 106.931C101.752 106.757 102.18 106.523 102.509 106.105C102.572 106.025 102.561 105.91 102.485 105.842C101.555 105.023 100.608 104.428 99.5898 104.023C98.0812 103.425 96.707 103.263 95.36 103.521C95.1587 103.56 94.9622 103.61 94.7712 103.666C96.0312 102.914 97.2377 102.031 98.377 101.024C98.3988 101.004 98.4348 100.987 98.4628 100.982C98.6492 100.951 98.8967 100.913 99.1501 100.895C99.1735 100.895 99.2033 100.906 99.2066 100.907C99.8931 101.674 100.778 102.047 101.911 102.047C101.968 102.047 102.026 102.046 102.084 102.044C103.316 102.004 104.554 101.666 105.766 101.039C106.646 100.581 107.563 100.047 108.307 99.2512C108.472 99.0743 108.62 98.8741 108.75 98.6976L108.762 98.6803C108.82 98.6025 108.878 98.524 108.938 98.4465C108.971 98.4047 108.984 98.3508 108.976 98.2965C108.967 98.2442 108.936 98.1976 108.884 98.1639C108.871 98.1568 108.556 97.9882 108.269 97.877C106.342 97.1341 104.398 97.058 102.543 97.6547C101.936 97.8495 101.364 98.1419 100.808 98.5462C101.837 97.3521 102.79 96.0431 103.655 94.6346C103.664 94.6197 103.689 94.5795 103.697 94.5722C103.772 94.524 103.85 94.4785 103.927 94.4335C104.065 94.3524 104.209 94.2686 104.343 94.1687C104.457 94.0841 104.489 94.082 104.604 94.1557C104.766 94.2609 104.955 94.3156 105.119 94.3586C106.082 94.6047 107.053 94.482 108.126 93.9789C109.107 93.52 109.861 92.7945 110.53 92.0792C111.503 91.0357 112.139 90.0943 112.532 89.1162C112.614 88.9109 112.673 88.6987 112.734 88.4767C112.759 88.3836 112.785 88.2905 112.812 88.1989C112.842 88.1006 112.79 87.9966 112.693 87.9623L112.612 87.9562C112.215 87.9562 108.675 88.0142 106.604 90.0196C106.154 90.4559 105.75 90.9196 105.381 91.4273C106.201 89.6958 106.895 87.871 107.455 85.9768L107.463 85.9491C107.47 85.9259 107.48 85.8908 107.487 85.8813L108.028 85.139C108.049 85.1093 108.051 85.1093 108.083 85.1093C108.097 85.1093 108.112 85.1103 108.13 85.1113L108.246 85.1182C108.649 85.1432 108.886 85.1396 109.081 85.1091C109.852 84.9876 110.548 84.6 111.209 83.9239C112.753 82.3427 113.817 80.3698 114.459 77.8933C114.528 77.628 114.547 77.3601 114.568 77.0759C114.577 76.9471 114.587 76.8143 114.602 76.6772C114.608 76.6114 114.582 76.5486 114.533 76.5076Z" fill="white"/>
<path d="M62.1212 105.3C60.8365 105.017 59.5588 104.605 58.2144 104.039C58.1983 104.031 58.1584 103.986 58.1459 103.946C58.0119 103.49 57.967 103.031 58.0083 102.542C58.2716 99.4192 56.4088 96.1292 53.5796 94.7188C53.5195 94.6883 53.4567 94.6619 53.3845 94.6324L53.3174 94.6046C53.2536 94.5775 53.176 94.5888 53.1246 94.63C53.069 94.6728 53.0414 94.7425 53.0527 94.8125L53.1302 95.2912C53.1988 95.7149 53.2661 96.1294 53.3307 96.5444L53.3469 96.653C53.5286 97.8322 53.7164 99.0516 54.0823 100.223C54.4124 101.28 54.9218 102.114 55.6304 102.753C54.1335 101.872 52.7387 100.813 51.4719 99.5958C51.4453 99.5702 51.4137 99.5024 51.4091 99.4466L51.3752 98.6109C51.375 98.5812 51.3746 98.5023 51.3915 98.4633C52.0154 97.0124 52.1752 95.3792 51.8804 93.4708C51.5961 91.6301 50.8088 89.9375 49.54 88.4396C49.3915 88.2643 49.2605 88.1755 49.1505 88.1755C49.1237 88.1755 49.0995 88.1809 49.0804 88.1908C49.0221 88.2197 48.9825 88.2758 48.9748 88.3406L48.9409 88.6321C48.9147 88.8484 48.8894 89.0609 48.8668 89.2737C48.8277 89.6486 48.7848 90.0229 48.7417 90.3974L48.7356 90.4515C48.6284 91.3866 48.5172 92.3536 48.4584 93.3218C48.3901 94.4513 48.4104 95.7704 49.0792 96.9906C49.0828 96.9968 49.086 97.0033 49.0896 97.0094C48.1599 95.8491 47.3112 94.6003 46.554 93.277C46.4871 93.1593 46.4813 93.0561 46.4938 92.9063C46.5476 92.2728 46.8426 91.7579 47.1533 91.2962C47.7535 90.4022 48.1168 89.3454 48.3314 87.8696C48.6314 85.8056 48.3284 83.7351 47.4315 81.7151C47.4068 81.6594 47.3781 81.6057 47.3473 81.548L47.2772 81.416C47.2437 81.3516 47.172 81.3092 47.0964 81.3126C47.0209 81.3166 46.9544 81.3643 46.927 81.4337C46.7094 81.9814 46.499 82.5091 46.2899 83.0328L46.1563 83.3675C45.7104 84.4853 45.2104 85.7903 44.9197 87.1368C44.7148 88.0869 44.7023 89.004 44.882 89.8771C44.1848 88.2207 43.6116 86.4704 43.1727 84.6555C43.1677 84.6353 43.1661 84.583 43.2096 84.4623C43.4149 83.9015 43.7887 83.393 44.2624 83.0306C45.2993 82.2368 45.8875 81.1335 46.3261 80.159C47.224 78.1659 47.4676 76.0486 47.0705 73.6856C47.0664 73.6609 47.0588 73.6363 47.0499 73.6095L47.0428 73.5881C47.0255 73.5352 46.9862 73.4924 46.9342 73.47C46.8833 73.4488 46.8194 73.4528 46.7799 73.4722C46.7402 73.4867 46.68 73.5087 46.6409 73.5659C46.4162 73.8656 46.1881 74.1679 45.9598 74.4701L45.9215 74.521C45.3458 75.2841 44.7504 76.0728 44.1782 76.8585C43.5153 77.7662 43.0472 78.6486 42.7469 79.5562C42.6019 79.9945 42.5072 80.4164 42.4626 80.8261C42.2718 79.3536 42.1636 77.8502 42.14 76.3344C42.1344 75.9725 42.1805 75.685 42.428 75.3701C42.6901 75.0345 42.9349 74.847 43.2723 74.7234C44.6591 74.2177 45.5486 73.149 46.1686 72.2746C47.1702 70.8599 47.7576 69.2139 47.9645 67.2422C47.9865 67.0393 47.9991 66.834 48.012 66.6168L48.0151 66.5675C48.0213 66.4619 48.0278 66.3519 48.0362 66.2354C48.0413 66.1581 47.9998 66.0856 47.9306 66.0505C47.8635 66.0168 47.7775 66.0267 47.7191 66.0761L47.5546 66.2168C47.4926 66.2695 47.4396 66.3147 47.3846 66.3587C47.1204 66.5705 46.8551 66.7801 46.5893 66.9904L46.5615 67.0122C45.9781 67.4735 45.3745 67.9504 44.7982 68.443C43.6799 69.395 42.9599 70.3426 42.532 71.4255C42.4614 71.604 42.3994 71.7806 42.3462 71.9553C42.5221 70.2346 42.8078 68.5399 43.2001 66.8959C43.2477 66.6947 43.2743 66.6357 43.3722 66.6036C43.4338 66.5828 43.4911 66.5427 43.533 66.4932C43.8175 66.1704 44.1921 66.1193 44.555 66.112C45.766 66.0836 46.7265 65.4806 47.5061 64.8945C49.4177 63.4575 50.7339 59.8114 50.7339 59.6878C50.7339 59.6234 50.7018 59.5633 50.6472 59.5271C50.5934 59.4916 50.5207 59.4866 50.4659 59.511C50.0677 59.6796 49.6694 59.8439 49.2571 60.0141C48.3498 60.3896 47.4118 60.7776 46.5109 61.2019C45.6042 61.6301 44.8878 62.2028 44.3756 62.9074C44.8637 61.5229 45.4297 60.1655 46.0634 58.8611C46.1363 58.7204 46.4785 58.571 46.9693 58.571C47.1289 58.571 47.2836 58.588 47.4172 58.6201C48.5702 58.8959 49.7135 58.7287 50.9789 58.0976C52.2735 57.4516 53.3475 56.3954 54.2623 54.8679C54.2798 54.8383 54.3142 54.7482 54.3326 54.6976C54.3559 54.6358 54.3465 54.5676 54.308 54.5159C54.2723 54.4668 54.2151 54.4375 54.1422 54.4375H54.1406L53.6836 54.4662C53.4035 54.4838 53.1315 54.5011 52.8596 54.5149L52.5691 54.5296C51.702 54.5732 50.805 54.618 49.9275 54.8266C48.9268 55.0668 48.192 55.4356 47.6286 55.9825C48.2955 54.8746 49.0095 53.8204 49.7618 52.833C49.782 52.8068 49.8791 52.7668 49.9587 52.7535C49.9984 52.7442 50.1429 52.7139 50.3351 52.7139C50.59 52.7139 50.8132 52.7656 51.0024 52.8695C52.2044 53.4562 53.5544 53.4998 55.0201 52.9973C56.2224 52.5873 57.2406 51.8258 58.1332 50.6699C58.1622 50.6327 58.1884 50.5921 58.2122 50.5493C58.2394 50.4999 58.2412 50.4456 58.2174 50.3961C58.1483 50.2514 57.8493 50.1835 57.7234 50.1609C57.4145 50.107 57.0645 50.0456 56.7175 49.9986C56.5585 49.9764 56.3993 49.9532 56.2397 49.9296L56.2192 49.9265C55.6784 49.8468 55.1194 49.7644 54.5562 49.736C53.527 49.6835 52.6132 49.8932 51.8653 50.3573C52.3682 49.823 52.882 49.3161 53.4037 48.84C53.5687 48.6898 53.7553 48.5384 54.0096 48.3484C54.0293 48.3333 54.0793 48.3157 54.1406 48.3121C55.9431 48.2418 57.4429 47.4475 58.7254 45.8845C59.424 45.0336 59.9596 43.9604 60.3632 42.6035L60.3771 42.5569C60.4202 42.4142 60.444 42.3357 60.345 42.2438C60.2685 42.1729 60.1339 42.1939 59.7841 42.3322C59.4665 42.454 59.1469 42.5723 58.8187 42.6938C58.1594 42.9377 57.4775 43.19 56.8194 43.4749C55.7195 43.9521 54.8412 44.6754 54.2093 45.6243C53.7281 46.3464 53.5379 47.0718 53.6275 47.8383C53.6269 47.8468 53.6193 47.8672 53.6181 47.8696C52.4701 48.859 51.3726 49.9728 50.2458 51.2985C50.9972 50.1518 51.487 48.8315 51.7327 47.3009C51.9805 45.7579 51.9962 44.3845 51.781 43.1024C51.7673 43.0222 51.7488 42.9419 51.7252 42.8414L51.69 42.6867C51.6742 42.6203 51.6241 42.5666 51.5584 42.546C51.4927 42.5266 51.4191 42.5438 51.37 42.5904C51.2914 42.6643 51.2144 42.734 51.1391 42.8018L51.0861 42.8496C50.8936 43.0227 50.7117 43.1862 50.5471 43.3711C48.948 45.1717 48.0153 47.0736 47.6959 49.1856C47.5504 50.1401 47.6107 50.9527 47.8805 51.6692C47.9699 51.9066 48.1092 52.1187 48.248 52.3291C48.3115 52.4252 48.3751 52.5217 48.4332 52.6208C48.4761 52.6919 48.4797 52.7103 48.4795 52.707C48.4531 52.9893 48.4152 53.304 48.3639 53.6817C48.3618 53.6865 48.3546 53.6975 48.3318 53.7277L48.3133 53.7532C47.4388 54.9665 46.632 56.2456 45.906 57.5695C46.1915 56.5807 46.4188 55.3292 46.4027 53.8749C46.3832 52.1305 45.9808 50.5748 45.172 49.1182C45.1401 49.0615 45.0821 49.0247 45.0009 49.0191C44.942 49.0191 44.8852 49.0482 44.848 49.098C44.8238 49.1317 44.7992 49.1634 44.7758 49.1935C44.7236 49.2609 44.6747 49.3247 44.6311 49.3928C43.987 50.4008 43.6416 51.5123 43.4123 52.3681C42.9932 53.9377 42.8007 55.2483 42.8062 56.4929C42.8094 57.5509 43.0026 58.3641 43.4143 59.0523C43.5423 59.2665 43.7035 59.4539 43.8655 59.6426C43.9515 59.7427 44.0399 59.8455 44.1199 59.9509C44.1758 60.0242 44.2028 60.0989 44.2044 60.1406C44.2149 60.3914 44.2094 60.6464 44.204 60.8929L44.2003 61.0634C44.1997 61.0927 44.1929 61.1264 44.1828 61.1521C43.6658 62.4023 43.2114 63.7016 42.8239 65.036C42.8809 64.5816 42.913 64.1417 42.9212 63.7125C42.968 61.2764 42.2194 59.1008 40.6955 57.2455L40.3778 56.8593C40.3411 56.8139 40.2867 56.7882 40.2287 56.7882L40.197 56.7909C40.1291 56.8022 40.0719 56.8492 40.0483 56.9132C40.0193 56.9903 39.9909 57.063 39.9633 57.1334C39.9101 57.2693 39.8599 57.3981 39.8174 57.5291C39.4904 58.5514 39.33 59.6682 39.2975 61.1496L39.2969 61.1785C39.2724 62.2563 39.2389 63.7327 39.6824 65.1455C40.119 66.5364 40.8888 67.2393 41.0381 67.3655L41.054 67.3797C41.4604 67.7418 41.725 68.0729 41.7798 68.2879C41.8019 68.3747 41.8243 68.4617 41.8505 68.5477C41.9664 68.9303 41.894 69.2949 41.8158 69.6886C41.7769 69.8874 41.7364 70.0927 41.7223 70.3033C41.6663 71.1463 41.5976 72.0035 41.5311 72.8324L41.5251 72.9091C41.508 73.1205 41.491 73.3319 41.4741 73.5434C41.3046 71.6466 40.6752 69.9225 39.5925 68.3977C38.9294 67.4648 38.1389 66.6666 37.2423 66.0248C37.2036 65.997 37.1629 65.9723 37.1085 65.94C37.0821 65.9247 37.0515 65.9065 37.0144 65.8833C36.9584 65.8498 36.8866 65.8468 36.8288 65.875C36.7696 65.9037 36.7289 65.9621 36.7222 66.0283C36.7101 66.1482 36.696 66.2643 36.6811 66.3848C36.6511 66.6315 36.6227 66.8645 36.6215 67.1039C36.6082 69.5852 37.1341 71.9104 38.1851 74.014C38.4779 74.6009 38.8649 75.1086 39.3356 75.5235C39.8023 75.9327 40.306 76.1741 40.8744 76.2608C40.8869 76.263 40.9166 76.2811 40.9212 76.2846C40.952 76.3463 40.9839 76.4081 41.0159 76.4701C41.1295 76.6891 41.2468 76.9156 41.3052 77.1426C41.3538 77.3347 41.3538 77.5445 41.3538 77.7668C41.3538 77.8483 41.3538 77.9303 41.3564 78.0108C41.411 79.9329 41.4826 80.6022 41.7907 82.3196C41.6027 81.809 41.3667 81.297 41.062 80.8043C39.8279 78.8107 38.2602 77.4575 36.2691 76.6679C36.1425 76.6169 36.0154 76.5803 35.8681 76.5375L35.8387 76.5288C35.779 76.5113 35.7157 76.4927 35.648 76.4721C35.5868 76.4521 35.5171 76.4657 35.4673 76.507C35.4177 76.548 35.3917 76.6108 35.3982 76.6762C35.4129 76.8125 35.423 76.9451 35.4324 77.0745C35.4528 77.3582 35.4721 77.6261 35.541 77.8913C36.1834 80.368 37.2467 82.3406 38.7914 83.9221C39.4519 84.5982 40.1479 84.9858 40.9192 85.1073C41.1138 85.1376 41.3516 85.1414 41.7542 85.1164L41.8702 85.1095C41.8878 85.1085 41.9033 85.1075 41.9174 85.1075C41.9492 85.1075 41.9518 85.1075 41.9738 85.14L42.5132 85.8793C42.5201 85.889 42.5303 85.9241 42.5372 85.9482L42.5451 85.9748C43.105 87.8692 43.7996 89.6938 44.6188 91.4254C44.2501 90.9176 43.8461 90.4539 43.3958 90.0177C41.3252 88.0124 37.7851 87.9544 37.3882 87.9544L37.3388 87.9548L37.3076 87.9605C37.2104 87.995 37.1578 88.0988 37.1877 88.1965C37.2153 88.2887 37.2411 88.3818 37.2707 88.4912C37.3273 88.6966 37.3861 88.9089 37.4684 89.1142C37.8607 90.0927 38.4966 91.0339 39.47 92.0774C40.1388 92.7927 40.8928 93.5182 41.8733 93.9769C42.9472 94.4802 43.9168 94.6031 44.881 94.3565C45.045 94.3135 45.2336 94.2591 45.3958 94.154C45.5113 94.0801 45.5429 94.0825 45.6564 94.1669C45.791 94.2668 45.9342 94.3506 46.0732 94.4318C46.15 94.4768 46.2274 94.5222 46.2997 94.5678C46.3112 94.5775 46.3358 94.6177 46.3449 94.6326C47.2101 96.0411 48.1632 97.3501 49.1924 98.5442C48.6357 98.1399 48.0642 97.8474 47.4571 97.6527C45.6019 97.056 43.6573 97.1319 41.7314 97.8752C41.4439 97.9864 41.1289 98.1548 41.1078 98.1667C41.0637 98.1956 41.0334 98.2424 41.0238 98.2961C41.0155 98.3488 41.0292 98.4027 41.0614 98.4439C41.1215 98.522 41.1797 98.6004 41.2373 98.6783L41.25 98.6953C41.38 98.8721 41.5273 99.072 41.6925 99.2492C42.4364 100.045 43.3537 100.579 44.2344 101.037C45.4454 101.664 46.6838 102.002 47.9155 102.042C47.9734 102.044 48.0314 102.045 48.0892 102.045C49.2222 102.045 50.1066 101.672 50.7883 100.91C50.7967 100.904 50.8263 100.892 50.8425 100.892C51.103 100.911 51.3506 100.949 51.5356 100.979C51.5648 100.985 51.6007 101.002 51.6231 101.022C52.7621 102.029 53.9683 102.912 55.2284 103.664C55.0374 103.607 54.8407 103.558 54.6393 103.519C53.2927 103.26 51.9185 103.423 50.4096 104.021C49.3915 104.426 48.4447 105.021 47.515 105.84C47.4384 105.907 47.4277 106.023 47.4908 106.103C47.8198 106.521 48.2478 106.755 48.6232 106.928C49.5388 107.353 50.5723 107.625 51.7839 107.76C51.7875 107.76 52.1768 107.794 52.7228 107.794C53.1168 107.794 53.4835 107.776 53.8121 107.742C54.1262 107.709 54.4394 107.655 54.7434 107.582C56.1394 107.243 57.0854 106.545 57.6274 105.462C57.6371 105.453 57.6788 105.429 57.7316 105.416C57.9835 105.354 58.2102 105.31 58.4258 105.281C58.4767 105.273 58.54 105.286 58.6198 105.318C59.5838 105.689 60.6041 105.998 61.6501 106.236C61.6648 106.24 61.6801 106.242 61.6954 106.242C61.7656 106.242 61.8304 106.203 61.8645 106.14C61.9644 105.955 62.0861 105.777 62.226 105.611C62.2699 105.559 62.283 105.49 62.2614 105.425C62.2407 105.363 62.1883 105.316 62.1212 105.3Z" fill="white"/>
<path d="M84.417 79.7275L92.3938 71.9666C92.6642 71.7034 92.7619 71.3095 92.6449 70.951C92.5282 70.5922 92.2177 70.3306 91.8437 70.2765L80.8209 68.6788L75.8905 58.709C75.7234 58.3708 75.3783 58.1568 75.0005 58.1568C74.6227 58.1568 74.2775 58.3712 74.1106 58.709L69.1819 68.6788L58.1574 70.2765C57.7836 70.3306 57.4729 70.5924 57.3562 70.951C57.2392 71.3095 57.3367 71.7034 57.6073 71.9666L65.5841 79.7275L63.702 90.6853C63.6381 91.0568 63.7912 91.4325 64.0969 91.654C64.4022 91.8758 64.8072 91.9051 65.1422 91.7295L75.0009 86.5567L84.8597 91.7295C85.0049 91.8058 85.1635 91.8433 85.3213 91.8433C85.5272 91.8433 85.7319 91.7795 85.9048 91.654C86.2105 91.4327 86.3638 91.0568 86.2996 90.6853L84.417 79.7275Z" fill="white"/>
</svg>
