<svg width="40" height="39" viewBox="0 0 40 39" fill="none" xmlns="http://www.w3.org/2000/svg">
<path fill-rule="evenodd" clip-rule="evenodd" d="M34.7318 15.2347C35.6241 18.3322 35.4707 21.6379 34.2954 24.6392C33.1201 27.6405 30.9886 30.1696 28.2316 31.8343C25.4745 33.4989 22.2459 34.2061 19.0465 33.8462C15.8471 33.4863 12.8558 32.0793 10.5363 29.8435C8.21694 27.6077 6.69911 24.6681 6.21827 21.4805C5.73743 18.2929 6.32045 15.0354 7.8769 12.2135C9.43336 9.39145 11.8763 7.16257 14.8267 5.87249C17.7772 4.5824 21.0704 4.30322 24.1955 5.07824L20.6795 19.2933L34.7318 15.2347Z" fill="#263765"/>
<path fill-rule="evenodd" clip-rule="evenodd" d="M26.1973 3.17082L22.7397 17.1496L36.5666 13.1562C35.8487 10.7349 34.5177 8.54069 32.7027 6.78669C30.8818 5.04 28.6408 3.7944 26.1973 3.17082Z" fill="#263765"/>
</svg>
