<svg width="176" height="116" viewBox="0 0 176 116" fill="none" xmlns="http://www.w3.org/2000/svg">
<path d="M159.114 46.3197L159.115 46.319C162.107 44.4294 163.171 40.3935 161.455 37.16C160.774 35.8779 159.759 34.9159 158.589 34.322L158.589 34.3219C157.485 33.7613 156.242 33.5277 155.008 33.6633L155.008 33.6633C154.61 33.7069 154.213 33.789 153.822 33.9114L153.821 33.9119C153.558 33.9932 153.298 34.0936 153.04 34.2126L159.114 46.3197ZM159.114 46.3197C159.035 46.3704 158.953 46.4194 158.869 46.468M159.114 46.3197L158.869 46.468M158.869 46.468C158.838 46.4854 158.813 46.4996 158.788 46.5129L158.788 46.5129L158.783 46.5156C158.718 46.5516 158.653 46.586 158.587 46.6201C155.47 48.2089 151.656 46.9964 149.949 43.7812C148.317 40.7071 149.199 36.9034 151.864 34.9133L151.864 34.9133C152.077 34.7542 152.301 34.6071 152.535 34.4735L152.535 34.4733C152.62 34.4248 152.705 34.3785 152.789 34.3353L152.789 34.3353L152.792 34.3336C152.871 34.2923 152.954 34.2525 153.04 34.2127L158.869 46.468Z" fill="#C5D7FF" stroke="#2E51FF"/>
<path d="M135.074 46.3197L135.075 46.319C138.067 44.4294 139.13 40.3935 137.414 37.16C136.733 35.8779 135.718 34.9159 134.548 34.322L134.548 34.3219C133.444 33.7613 132.201 33.5277 130.968 33.6633L130.968 33.6633C130.57 33.7069 130.173 33.789 129.782 33.9114L129.78 33.9119C129.518 33.9932 129.257 34.0936 129 34.2126L135.074 46.3197ZM135.074 46.3197C134.994 46.3704 134.912 46.4194 134.828 46.468M135.074 46.3197L134.828 46.468M134.828 46.468C134.797 46.4854 134.772 46.4996 134.748 46.5129L134.748 46.5129L134.743 46.5156C134.678 46.5516 134.613 46.586 134.547 46.6201C131.429 48.2089 127.616 46.9964 125.908 43.7812C124.276 40.7071 125.159 36.9034 127.824 34.9133L127.824 34.9133C128.037 34.7542 128.26 34.6071 128.494 34.4735L128.494 34.4733C128.579 34.4248 128.664 34.3785 128.748 34.3353L128.748 34.3353L128.752 34.3336C128.831 34.2923 128.914 34.2525 129 34.2127L134.828 46.468Z" fill="#C5D7FF" stroke="#2E51FF"/>
<path d="M148.755 47.5558L148.756 47.5551C153.532 44.5384 155.223 38.1048 152.489 32.9539C151.404 30.9103 149.784 29.3742 147.915 28.4254L147.915 28.4253C146.152 27.5299 144.166 27.1564 142.194 27.3732L142.193 27.3732C141.558 27.4429 140.923 27.5742 140.298 27.7699L140.296 27.7703C139.876 27.9006 139.46 28.061 139.049 28.251L148.755 47.5558ZM148.755 47.5558C148.627 47.6371 148.497 47.7155 148.362 47.7928C148.315 47.8198 148.273 47.8436 148.231 47.8662L148.231 47.8662M148.755 47.5558L148.231 47.8662M148.231 47.8662L148.226 47.8689M148.231 47.8662L148.226 47.8689M148.226 47.8689C148.122 47.9263 148.019 47.9813 147.913 48.0355C142.928 50.5764 136.837 48.6332 134.115 43.506C131.515 38.6083 132.917 32.5459 137.171 29.3696L137.171 29.3696M148.226 47.8689L137.171 29.3696M137.171 29.3696C137.511 29.1158 137.868 28.8808 138.242 28.6673L138.242 28.6672M137.171 29.3696L138.242 28.6672M138.242 28.6672C138.377 28.59 138.513 28.5159 138.648 28.4467L138.648 28.4467M138.242 28.6672L138.648 28.4467M138.648 28.4467L138.651 28.4449M138.648 28.4467L138.651 28.4449M138.651 28.4449C138.78 28.3778 138.912 28.314 139.048 28.251L138.651 28.4449Z" fill="#C5D7FF" stroke="#2E51FF"/>
<path d="M172.241 90.0353L172.012 90.4271L172.38 90.6928C174.649 92.3314 174.808 94.2975 174.104 95.2506C173.748 95.7325 173.119 96.063 172.215 96.0162C171.302 95.9688 170.104 95.5305 168.702 94.4427L168.415 94.2201L168.115 94.4241C165.349 96.3021 161.796 97.3842 157.668 97.9925C153.542 98.6006 148.88 98.7301 143.92 98.7301C138.847 98.7301 134.085 98.594 129.89 97.9492C125.693 97.304 122.104 96.1554 119.351 94.1601L119.008 94.51L118.803 94.2579C117.319 95.4681 116.052 95.9587 115.09 96.0198C114.141 96.0801 113.488 95.7269 113.132 95.2139C112.425 94.1971 112.673 92.0809 115.276 90.428L115.673 90.1756L115.445 89.7636C114.05 87.2449 113.263 83.9899 113.263 79.7735C113.263 70.8863 115.46 60.5877 120.388 53.1777C122.849 49.4786 125.978 46.5156 129.84 44.7911C133.696 43.0689 138.321 42.5649 143.807 43.8435L143.946 43.8759L144.081 43.8301C148.665 42.2747 152.833 42.6271 156.521 44.2913C160.221 45.9608 163.464 48.9635 166.147 52.7466C171.52 60.3197 174.577 70.9172 174.577 79.7735C174.577 84.1428 173.734 87.4796 172.241 90.0353Z" fill="white" stroke="#2E51FF"/>
<g style="mix-blend-mode:multiply">
<path d="M173.46 91.5949C172.753 90.5733 172.28 89.4978 172.764 88.3535C173.709 86.1133 170.31 84.2838 168.29 85.6369C165.831 87.2836 162.578 88.9652 158.275 90.5461C140.832 96.9583 117.494 87.0236 121.438 62.9641C123.263 51.8368 130.108 47.6875 137.553 46.3494C142.505 45.4594 142.825 44.8221 137.795 44.9278C137.572 44.9325 137.362 44.9351 137.165 44.9351C119.951 44.9351 111.978 61.4673 111.978 79.4758C111.978 81.6868 112.189 83.6498 112.59 85.3923C113.182 87.9611 111.856 90.8097 111.526 93.4249C111.195 96.0439 114.12 97.8871 118.326 94.4439C118.332 94.4395 118.333 94.4311 118.329 94.4255C118.32 94.4133 118.335 94.3976 118.347 94.4065C124.041 98.506 133.032 99.0475 143.149 99.0475C151.375 99.0475 158.855 98.6908 164.425 96.354C166.431 95.5126 168.738 95.8489 170.875 96.2506C173.827 96.8052 175.194 94.1016 173.46 91.5949Z" fill="url(#paint0_linear_1_1857)"/>
</g>
<path d="M122.554 48.2093L122.3 42.834H164.032L163.385 48.9379L122.554 48.2093Z" fill="white" stroke="#2E51FF"/>
<path d="M26.7623 49.2438L26.7634 49.2431C30.0134 47.1904 31.168 42.8075 29.3043 39.2965C28.5649 37.9043 27.4627 36.8591 26.1914 36.2138L26.1913 36.2138C24.992 35.6047 23.6416 35.3508 22.3009 35.4982L22.3007 35.4983C21.8685 35.5456 21.4369 35.6349 21.0123 35.7678L21.0108 35.7683C20.7253 35.8567 20.4424 35.9658 20.1626 36.0951L26.7623 49.2438ZM26.7623 49.2438C26.6757 49.2988 26.587 49.3521 26.4954 49.4048C26.4623 49.4236 26.4347 49.4392 26.4074 49.4539L26.4074 49.4539M26.7623 49.2438L26.4074 49.4539M26.4074 49.4539L26.4024 49.4567M26.4074 49.4539L26.4024 49.4567M26.4024 49.4567C26.3319 49.4957 26.2616 49.5331 26.1897 49.5701C22.8019 51.2967 18.6588 49.9785 16.8047 46.4866C15.0325 43.1485 15.99 39.018 18.8852 36.8562L18.8852 36.8562M26.4024 49.4567L18.8852 36.8562M18.8852 36.8562C19.1166 36.6834 19.3591 36.5236 19.6134 36.3784L19.6136 36.3783M18.8852 36.8562L19.6136 36.3783M19.6136 36.3783C19.7057 36.3256 19.7981 36.2753 19.8897 36.2284L19.8897 36.2284M19.6136 36.3783L19.8897 36.2284M19.8897 36.2284L19.8931 36.2266M19.8897 36.2284L19.8931 36.2266M19.8931 36.2266C19.9793 36.1815 20.0692 36.1383 20.1625 36.0951L19.8931 36.2266Z" fill="#C5D7FF" stroke="#2E51FF"/>
<path d="M43.2783 47.5558L43.2794 47.5551C48.0556 44.5384 49.7464 38.1048 47.0122 32.9539C45.9269 30.9103 44.3077 29.3742 42.4384 28.4254L42.4383 28.4253C40.6753 27.5299 38.6894 27.1564 36.7169 27.3732L36.7167 27.3732C36.0808 27.4429 35.4458 27.5742 34.821 27.7699L34.8196 27.7703C34.3992 27.9006 33.983 28.061 33.5718 28.251L43.2783 47.5558ZM43.2783 47.5558C43.1503 47.6371 43.0198 47.7155 42.8855 47.7928C42.8379 47.8198 42.796 47.8436 42.754 47.8662L42.754 47.8662M43.2783 47.5558L42.754 47.8662M42.754 47.8662L42.749 47.8689M42.754 47.8662L42.749 47.8689M42.749 47.8689C42.6452 47.9263 42.542 47.9813 42.4366 48.0355C37.4517 50.5764 31.3607 48.6332 28.6383 43.506C26.0379 38.6083 27.4407 32.5459 31.6945 29.3696L31.6945 29.3696M42.749 47.8689L31.6945 29.3696M31.6945 29.3696C32.0344 29.1158 32.3909 28.8808 32.7648 28.6673L32.765 28.6672M31.6945 29.3696L32.765 28.6672M32.765 28.6672C32.9001 28.59 33.036 28.5159 33.1711 28.4467L33.1711 28.4467M32.765 28.6672L33.1711 28.4467M33.1711 28.4467L33.1745 28.4449M33.1711 28.4467L33.1745 28.4449M33.1745 28.4449C33.3028 28.3778 33.4357 28.314 33.5718 28.251L33.1745 28.4449Z" fill="#C5D7FF" stroke="#2E51FF"/>
<path d="M59.9549 90.0336L59.726 90.4255L60.0939 90.6912C62.363 92.3297 62.5218 94.2958 61.8177 95.249C61.4618 95.7308 60.833 96.0613 59.9296 96.0145C59.0159 95.9671 57.8186 95.5288 56.4165 94.4411L56.1295 94.2185L55.8291 94.4225C53.0635 96.3005 49.5104 97.3826 45.3823 97.9909C41.2561 98.5989 36.5946 98.7285 31.6344 98.7285C26.5608 98.7285 21.7993 98.5924 17.6041 97.9475C13.407 97.3024 9.8186 96.1537 7.06565 94.1584L6.72254 94.5083L6.51689 94.2562C5.0335 95.4664 3.76576 95.9571 2.8044 96.0181C1.8548 96.0784 1.20229 95.7252 0.845793 95.2122C0.139168 94.1954 0.38724 92.0793 2.98999 90.4264L3.38753 90.1739L3.1593 89.762C1.76382 87.2432 0.977316 83.9882 0.977316 79.7718C0.977316 70.8846 3.17411 60.5861 8.10255 53.1761C10.5629 49.477 13.6925 46.5139 17.5541 44.7895C21.4107 43.0673 26.035 42.5633 31.5209 43.8419L31.6599 43.8743L31.795 43.8284C36.379 42.2731 40.5476 42.6255 44.2356 44.2897C47.9351 45.9591 51.1779 48.9618 53.8616 52.7449C59.2339 60.3181 62.2914 70.9155 62.2914 79.7718C62.2914 84.1412 61.4478 87.478 59.9549 90.0336Z" fill="white" stroke="#2E51FF"/>
<mask id="mask0_1_1857" style="mask-type:alpha" maskUnits="userSpaceOnUse" x="0" y="42" width="63" height="58">
<path d="M60.1 90.0341L59.8711 90.426L60.239 90.6917C62.5081 92.3302 62.6669 94.2963 61.9628 95.2495C61.6069 95.7313 60.9781 96.0618 60.0747 96.015C59.161 95.9676 57.9637 95.5293 56.5616 94.4416L56.2746 94.219L55.9742 94.423C53.2086 96.301 49.6555 97.3831 45.5274 97.9914C41.4012 98.5994 36.7398 98.729 31.7795 98.729C26.7059 98.729 21.9444 98.5929 17.7492 97.948C13.5521 97.3029 9.96371 96.1542 7.21076 94.1589L6.86765 94.5088L6.662 94.2567C5.17861 95.4669 3.91087 95.9575 2.94951 96.0186C1.99991 96.0789 1.3474 95.7257 0.990904 95.2127C0.284279 94.1959 0.532351 92.0798 3.1351 90.4269L3.53264 90.1744L3.30441 89.7625C1.90894 87.2437 1.12243 83.9887 1.12243 79.7723C1.12243 70.8851 3.31922 60.5865 8.24766 53.1766C10.708 49.4775 13.8377 46.5144 17.6993 44.79C21.5558 43.0678 26.1801 42.5638 31.666 43.8424L31.805 43.8748L31.9401 43.8289C36.5242 42.2735 40.6927 42.626 44.3807 44.2902C48.0802 45.9596 51.323 48.9623 54.0067 52.7454C59.379 60.3186 62.4365 70.916 62.4365 79.7723C62.4365 84.1417 61.5929 87.4785 60.1 90.0341Z" fill="white" stroke="#2E51FF"/>
</mask>
<g mask="url(#mask0_1_1857)">
<g style="mix-blend-mode:multiply">
<path d="M62.1043 91.5932C61.3976 90.5716 60.9249 89.4961 61.4081 88.3518C62.354 86.1116 58.9546 84.2821 56.9341 85.6352C54.4751 87.2819 51.2223 88.9635 46.9195 90.5444C29.4763 96.9566 6.13863 87.0219 10.083 62.9624C12.3059 49.4051 21.9092 42.561 30.9926 39.7108C34.467 38.6206 35.4352 33.8258 31.7938 33.8258C14.5799 33.8258 0.622546 61.4656 0.622546 79.4741C0.622546 81.6851 0.833338 83.6481 1.23468 85.3906C1.82634 87.9594 0.500748 90.808 0.17048 93.4232C-0.160251 96.0422 2.76501 97.8854 6.97093 94.4422C6.97641 94.4378 6.97774 94.4295 6.97348 94.4238C6.96435 94.4116 6.97949 94.3959 6.99183 94.4048C12.6859 98.5043 21.6769 99.0458 31.7938 99.0458C40.0198 99.0458 47.4994 98.6891 53.07 96.3523C55.0759 95.5109 57.3821 95.8473 59.5199 96.2489C62.472 96.8035 63.8381 94.0999 62.1043 91.5932Z" fill="url(#paint1_linear_1_1857)"/>
</g>
</g>
<path d="M11.0537 48.2078L10.7991 42.8326H52.5314L51.8845 48.9365L11.0537 48.2078Z" fill="white" stroke="#2E51FF"/>
<path d="M75.0619 21.0545L62.9798 7.13641C62.0426 6.05904 62.7787 4.33441 64.1783 4.33441H74.6637M75.0619 21.0545H80.4915L80.3013 20.5545M75.0619 21.0545L75.4395 20.7268L75.2899 20.5545M75.0619 21.0545V20.5545H75.2899M80.3013 20.5545H80.8362L74.6637 4.33441M80.3013 20.5545L74.319 4.83441M80.3013 20.5545H75.2899M74.6637 4.33441L74.1964 4.51224L74.319 4.83441M74.6637 4.33441V4.83441H74.319M74.319 4.83441H64.1783C63.2452 4.83441 62.6764 6.02575 63.357 6.80826L63.3573 6.80864L75.2899 20.5545" fill="white" stroke="#2E51FF"/>
<path d="M76.4897 21.0545C78.6804 21.0545 80.1927 18.861 79.4135 16.8135L75.2013 5.74478C74.8782 4.89565 74.0641 4.33441 73.1556 4.33441C71.4849 4.33441 70.4294 6.13401 71.1868 7.62316C73.1497 11.4825 74.3644 14.6668 74.3328 16.5793C74.3138 17.7288 73.8816 19.6939 74.6352 20.562C74.9068 20.8749 75.3007 21.0545 75.715 21.0545H76.4897Z" fill="url(#paint2_linear_1_1857)"/>
<path d="M92.725 20.5545L98.7073 4.83441H108.848C109.781 4.83441 110.35 6.02575 109.669 6.80826L109.669 6.80864L97.7363 20.5545H92.725Z" fill="white" stroke="#2E51FF"/>
<path d="M100.48 1.77872L93.211 20.5547H78.7855L71.5168 1.77802C71.5168 1.77801 71.5168 1.77799 71.5168 1.77797C71.2712 1.14334 71.7318 0.5 72.3254 0.5H99.6711C100.265 0.5 100.726 1.13968 100.48 1.77872Z" fill="white" stroke="#2E51FF"/>
<path d="M80.107 17.6062C78.7412 17.3427 77.5275 18.6857 78.0299 19.9828C78.2799 20.6281 78.9007 21.0534 79.5927 21.0534H92.487C93.1309 21.0534 93.7086 20.6576 93.9411 20.0571C94.4193 18.8222 93.2177 17.5406 91.9165 17.7866C87.4857 18.6242 83.1974 18.2023 80.107 17.6062Z" fill="url(#paint3_linear_1_1857)"/>
<path d="M127.907 102.688L127.678 103.08L128.047 103.346C131.406 105.767 131.74 108.76 130.608 110.289C130.037 111.059 129.043 111.566 127.661 111.494C126.269 111.422 124.481 110.759 122.415 109.159L122.128 108.938L121.828 109.141C117.759 111.898 112.545 113.478 106.515 114.365C100.486 115.251 93.6814 115.44 86.4537 115.44C79.0609 115.44 72.1098 115.242 65.98 114.302C59.8483 113.361 54.5804 111.683 50.5285 108.753L50.1848 109.104L50.0083 108.887C47.8241 110.665 45.9331 111.407 44.4698 111.499C43.0181 111.591 41.9854 111.051 41.4142 110.231C40.2788 108.6 40.7569 105.39 44.6028 102.953L45.0013 102.701L44.7723 102.288C42.7162 98.585 41.5652 93.8133 41.5652 87.6566C41.5652 74.7532 46.6112 58.3518 54.7849 45.1782C62.9733 31.9809 74.1899 22.1906 86.4537 22.1906C98.7195 22.1906 109.936 31.9809 118.124 45.1782C126.297 58.3518 131.342 74.7532 131.342 87.6566C131.342 94.0366 130.108 98.9293 127.907 102.688Z" fill="white" stroke="#2E51FF"/>
<path d="M86.5327 95.701C85.6309 95.701 85.9998 57.5413 86.5327 57.5413C87.0656 57.5413 87.5164 95.701 86.5327 95.701Z" fill="#2E51FF"/>
<path d="M86.533 94.332C86.533 94.332 85.7951 87.1499 80.9994 85.2952C80.9994 85.2952 84.8524 85.4136 86.533 89.8728V94.332Z" fill="#2E51FF"/>
<path d="M86.7377 91.7281C86.7377 91.7281 87.3936 85.2169 91.7794 83.52C91.7794 83.52 88.2953 83.6384 86.7377 87.6635V91.7281Z" fill="#2E51FF"/>
<path d="M86.4503 85.5072C86.4503 85.5072 83.1302 84.126 83.1712 77.1018C83.1712 77.1018 87.434 79.0354 86.4503 85.5072Z" fill="#2E51FF"/>
<path d="M83.5403 79.1129L80.835 72.3254L84.4421 78.5999L83.5403 79.1129Z" fill="#2E51FF"/>
<path d="M86.4507 78.481C86.4507 78.481 83.2945 77.1788 83.3355 70.4702C83.3355 70.4702 87.3934 72.3249 86.4507 78.481Z" fill="#2E51FF"/>
<path d="M83.7038 72.3639L81.1215 65.9316L84.5646 71.9299L83.7038 72.3639Z" fill="#2E51FF"/>
<path d="M86.4507 71.6543C86.4507 71.6543 83.2945 70.3521 83.3355 63.6436C83.3355 63.6436 87.3934 65.4588 86.4507 71.6543Z" fill="#2E51FF"/>
<path d="M83.7038 65.5392L81.1215 59.1069L84.5646 65.0657L83.7038 65.5392Z" fill="#2E51FF"/>
<path d="M86.8196 85.5072C86.8196 85.5072 90.1398 84.126 90.0988 77.1018C90.0578 77.1018 85.7949 79.0354 86.8196 85.5072Z" fill="#2E51FF"/>
<path d="M89.7297 79.1129L92.435 72.3254L88.787 78.5999L89.7297 79.1129Z" fill="#2E51FF"/>
<path d="M86.8195 78.481C86.8195 78.481 89.9757 77.1788 89.9347 70.4702C89.8937 70.4702 85.8358 72.3249 86.8195 78.481Z" fill="#2E51FF"/>
<path d="M89.5656 72.3639L92.1479 65.9316L88.7048 71.9299L89.5656 72.3639Z" fill="#2E51FF"/>
<path d="M86.8195 71.6543C86.8195 71.6543 89.9757 70.3521 89.9347 63.6436C89.8937 63.6436 85.8358 65.4588 86.8195 71.6543Z" fill="#2E51FF"/>
<path d="M89.5656 65.5392L92.1479 59.1069L88.7048 65.0657L89.5656 65.5392Z" fill="#2E51FF"/>
<path d="M86.5729 65.6974C86.5729 65.6974 84.0316 63.448 86.368 57.1736C86.368 57.1736 89.5652 60.1727 86.5729 65.6974Z" fill="#2E51FF"/>
<path d="M86.0817 59.0668L86.4096 52.2004L87.0655 58.9879L86.0817 59.0668Z" fill="#2E51FF"/>
<path d="M121.454 58.9457C122.865 57.992 120.569 51.7337 116.326 44.9675C112.083 38.2013 107.5 33.4894 106.089 34.4432C104.678 35.397 106.974 41.6553 111.217 48.4215C115.46 55.1876 120.043 59.8995 121.454 58.9457Z" fill="white" fill-opacity="0.19"/>
<path d="M130.598 105.185C129.566 103.696 128.875 102.123 129.582 100.454C130.957 97.2114 126.05 94.5598 123.119 96.5143C119.531 98.9073 114.776 101.352 108.474 103.651C83.075 112.917 49.093 98.5602 54.8365 63.792C58.139 43.8016 72.6302 33.9115 86.0895 29.9469C90.9231 28.5231 92.3097 21.8773 87.2738 21.7013C86.9996 21.6917 86.7248 21.6869 86.4495 21.6869C61.3843 21.6869 41.0611 61.6289 41.0611 87.6529C41.0611 91.7188 41.5581 95.2045 42.4914 98.1915C43.2814 100.72 42.3076 103.523 41.0518 105.856C38.5535 110.496 43.1602 115.088 50.3049 109.283C50.3129 109.277 50.3148 109.265 50.3086 109.257C50.2953 109.239 50.3171 109.216 50.335 109.229C58.6261 115.153 71.7181 115.936 86.4495 115.936C99.2003 115.936 110.72 115.352 118.965 111.353C120.91 110.41 123.211 110.584 125.21 111.407C130.58 113.616 133.398 109.229 130.598 105.185Z" fill="url(#paint4_linear_1_1857)"/>
<path fill-rule="evenodd" clip-rule="evenodd" d="M81.4934 24.185C81.8218 24.7127 81.676 25.417 81.1677 25.758C79.8847 26.6186 78.6705 28.7789 77.9351 31.5832C77.2135 34.3349 77.0356 37.402 77.5627 39.7855C77.6981 40.3979 77.3298 41.0083 76.7399 41.1489C76.1501 41.2895 75.5621 40.9071 75.4267 40.2947C74.7995 37.4584 75.0298 34.0006 75.8205 30.9855C76.5974 28.0229 77.9995 25.1743 79.9784 23.8468C80.4867 23.5058 81.165 23.6572 81.4934 24.185Z" fill="#FF7300"/>
<path fill-rule="evenodd" clip-rule="evenodd" d="M80.8734 24.4731C81.0489 25.0744 80.7217 25.7096 80.1425 25.8918C78.955 26.2654 77.1538 27.5234 75.5584 29.5394C73.9832 31.5296 72.7011 34.145 72.4208 37.1198C72.3619 37.7452 71.8259 38.2025 71.2236 38.1413C70.6213 38.0802 70.1807 37.5237 70.2397 36.8983C70.5708 33.3838 72.0759 30.3556 73.8651 28.0948C75.634 25.8597 77.7744 24.2593 79.5069 23.7142C80.0861 23.532 80.6979 23.8718 80.8734 24.4731Z" fill="#FF7300"/>
<path d="M127.907 102.749L127.678 103.141L128.047 103.407C131.406 105.828 131.74 108.821 130.608 110.351C130.037 111.121 129.043 111.627 127.661 111.556C126.269 111.483 124.481 110.82 122.415 109.221L122.128 108.999L121.828 109.202C117.759 111.959 112.545 113.54 106.515 114.426C100.486 115.313 93.6814 115.501 86.4537 115.501C79.0609 115.501 72.1098 115.303 65.98 114.363C59.8483 113.423 54.5804 111.745 50.5285 108.814L50.1848 109.165L50.0083 108.949C47.8241 110.727 45.9331 111.468 44.4698 111.561C43.0181 111.653 41.9854 111.112 41.4142 110.292C40.2788 108.662 40.7569 105.452 44.6028 103.015L45.0013 102.762L44.7723 102.35C42.7162 98.6463 41.5652 93.8746 41.5652 87.7179C41.5652 74.8145 46.6112 58.4131 54.7849 45.2395C62.9733 32.0421 74.1899 22.2519 86.4537 22.2519C98.7195 22.2519 109.936 32.0421 118.124 45.2395C126.297 58.413 131.342 74.8145 131.342 87.7179C131.342 94.0979 130.108 98.9905 127.907 102.749Z" stroke="#2E51FF"/>
<path d="M98.5333 25.6687H73.9105C73.1986 25.6687 72.6194 25.0674 72.6194 24.3283V24.0861C72.6194 23.3469 73.1986 22.7456 73.9105 22.7456H98.5333C99.2452 22.7456 99.8243 23.3469 99.8243 24.0861V24.3283C99.8243 25.0674 99.2492 25.6687 98.5333 25.6687Z" fill="#FF7300"/>
<path d="M98.5332 23.1985H73.9104C73.1985 23.1985 72.6193 22.5972 72.6193 21.858V21.6158C72.6193 20.8767 73.1985 20.2754 73.9104 20.2754H98.5332C99.2451 20.2754 99.8242 20.8767 99.8242 21.6158V21.858C99.8242 22.6013 99.2491 23.1985 98.5332 23.1985Z" fill="#FF7300"/>
<path d="M79.5114 0.83197C79.5114 0.83197 96.6613 0.83197 98.262 0.83197C99.8628 0.83197 100.309 1.62956 99.541 3.35836C98.7728 5.08717 95.511 12.9921 95.511 12.9921C95.511 12.9921 97.5582 5.75113 97.7512 4.35222C97.9443 2.95748 97.341 3.09111 95.7684 2.75704C92.3094 2.03044 79.5114 0.83197 79.5114 0.83197Z" fill="white" fill-opacity="0.19"/>
<defs>
<linearGradient id="paint0_linear_1_1857" x1="177.716" y1="23.4428" x2="170.056" y2="106.789" gradientUnits="userSpaceOnUse">
<stop stop-color="#D0D4E6"/>
<stop offset="1" stop-color="#C9CCD0" stop-opacity="0"/>
</linearGradient>
<linearGradient id="paint1_linear_1_1857" x1="66.3601" y1="23.4413" x2="58.7003" y2="106.788" gradientUnits="userSpaceOnUse">
<stop stop-color="#D0D4E6"/>
<stop offset="1" stop-color="#C9CCD0" stop-opacity="0"/>
</linearGradient>
<linearGradient id="paint2_linear_1_1857" x1="81.6549" y1="1.6722" x2="78.9496" y2="22.8746" gradientUnits="userSpaceOnUse">
<stop stop-color="#D0D4E6"/>
<stop offset="1" stop-color="#C9CCD0" stop-opacity="0"/>
</linearGradient>
<linearGradient id="paint3_linear_1_1857" x1="96.1405" y1="16.1303" x2="96.0284" y2="21.601" gradientUnits="userSpaceOnUse">
<stop stop-color="#D0D4E6"/>
<stop offset="1" stop-color="#C9CCD0" stop-opacity="0"/>
</linearGradient>
<linearGradient id="paint4_linear_1_1857" x1="136.781" y1="6.68036" x2="125.795" y2="127.139" gradientUnits="userSpaceOnUse">
<stop stop-color="#D0D4E6"/>
<stop offset="1" stop-color="#C9CCD0" stop-opacity="0"/>
</linearGradient>
</defs>
</svg>
