<svg width="12" height="18" viewBox="0 0 12 18" fill="none" xmlns="http://www.w3.org/2000/svg">
<path d="M10.1954 0.394043H1.87046C1.39734 0.394043 0.943592 0.564168 0.609044 0.866992C0.274495 1.16982 0.0865479 1.58053 0.0865479 2.00879L0.0865479 16.0033C0.0865479 16.4315 0.274495 16.8423 0.609044 17.1451C0.943592 17.4479 1.39734 17.618 1.87046 17.618H10.1954C10.6685 17.618 11.1223 17.4479 11.4568 17.1451C11.7914 16.8423 11.9793 16.4315 11.9793 16.0033V2.00879C11.9793 1.58053 11.7914 1.16982 11.4568 0.866992C11.1223 0.564168 10.6685 0.394043 10.1954 0.394043Z" fill="white"/>
<path d="M9.33474 1.62476H2.73221C2.35697 1.62476 1.99711 1.77058 1.73178 2.03014C1.46644 2.2897 1.31738 2.64175 1.31738 3.00883L1.31738 15.0041C1.31738 15.3712 1.46644 15.7232 1.73178 15.9828C1.99711 16.2423 2.35697 16.3882 2.73221 16.3882H9.33474C9.70997 16.3882 10.0698 16.2423 10.3352 15.9828C10.6005 15.7232 10.7496 15.3712 10.7496 15.0041V3.00883C10.7496 2.64175 10.6005 2.2897 10.3352 2.03014C10.0698 1.77058 9.70997 1.62476 9.33474 1.62476V1.62476ZM6.03347 15.4655C5.90977 15.4654 5.7873 15.4415 5.67305 15.3951C5.5588 15.3487 5.455 15.2808 5.36759 15.1951C5.19106 15.0222 5.09197 14.7878 5.09214 14.5434C5.09222 14.4223 5.11667 14.3025 5.16408 14.1908C5.2115 14.079 5.28095 13.9775 5.36848 13.892C5.54525 13.7193 5.78491 13.6223 6.03473 13.6225C6.28455 13.6227 6.52408 13.7199 6.70061 13.8928C6.87715 14.0657 6.97623 14.3002 6.97606 14.5446C6.97589 14.789 6.87649 15.0233 6.69972 15.196C6.52295 15.3687 6.2833 15.4656 6.03347 15.4655H6.03284H6.03347Z" fill="#263765"/>
</svg>
