<svg width="39" height="40" viewBox="0 0 39 40" fill="none" xmlns="http://www.w3.org/2000/svg">
<g clip-path="url(#clip0_1_1626)">
<path fill-rule="evenodd" clip-rule="evenodd" d="M21.4238 5.81812H4.75228C3.73073 5.81812 2.90833 6.66506 2.90833 7.7171V38.1012C2.90833 39.0508 3.8303 40.0003 4.75228 40.0003H13.9721V34.3032C13.9721 33.2512 14.9468 32.4042 15.816 32.4042H17.66C18.5292 32.4042 19.5039 33.2512 19.5039 34.3032V40.0003H28.7237C29.6457 40.0003 30.5676 39.0508 30.5676 38.1012V15.1357C30.3236 15.1569 30.0765 15.1677 29.8269 15.1677C28.0479 15.1677 26.3973 14.6168 25.0358 13.6758V15.3131H19.5039V11.5151H22.8757C21.9315 10.1485 21.3784 8.49 21.3784 6.70202C21.3784 6.40353 21.3938 6.10864 21.4238 5.81812ZM13.9721 11.5151H8.44019V15.3131H13.9721V11.5151ZM13.9721 22.9092H8.44019V26.7072H13.9721V22.9092ZM25.0358 22.9092H19.5039V26.7072H25.0358V22.9092Z" fill="#263765"/>
<path d="M31.9794 2.85615V2.75244C31.9794 2.52539 31.7965 2.3418 31.5703 2.3418H26.3053C26.1489 2.3418 26.0219 2.46933 26.0219 2.6263V3.51906C26.0219 3.70686 26.1726 3.85823 26.3597 3.85823H26.4295C27.0383 3.85823 27.4865 3.94792 27.7769 4.12731C27.9458 4.23243 28.0645 4.37959 28.1357 4.56739H26.4309C26.2048 4.56739 26.0219 4.75099 26.0219 4.97803V5.14201C26.0219 5.36905 26.2048 5.55265 26.4309 5.55265H28.1203C28.0491 5.72503 27.9402 5.86518 27.788 5.9731C27.5046 6.17211 27.0634 6.27162 26.4672 6.27162H26.4309C26.2048 6.27162 26.0219 6.45522 26.0219 6.68226V7.40123C26.0219 7.62828 26.2048 7.81188 26.4309 7.81188H26.8624L28.8659 11.0452C28.9399 11.1657 29.0711 11.2386 29.2136 11.2386H30.304C30.6321 11.2386 30.8276 10.8714 30.6419 10.5981C30.1616 9.89031 29.4356 8.80694 28.4624 7.34798C28.9902 7.11533 29.3979 6.79578 29.6855 6.38654C29.8642 6.13147 29.9884 5.85397 30.0555 5.55405H31.5717C31.7979 5.55405 31.9808 5.37045 31.9808 5.14341V4.97943C31.9808 4.75239 31.7979 4.56879 31.5717 4.56879H30.0918C30.0317 4.04182 29.8544 3.60876 29.5584 3.26819H31.5717C31.7965 3.26679 31.9794 3.08319 31.9794 2.85615Z" fill="white"/>
<circle cx="29.7" cy="6.7" r="6.7" fill="#263765"/>
<path d="M32.0478 4.78418H30.9833C31.1494 5.02832 31.2568 5.31478 31.3056 5.64355H32.2919L32.0478 6.53223H31.3105C31.2389 7.06934 31.024 7.48112 30.666 7.76758C30.3079 8.05078 29.8017 8.22005 29.1474 8.27539L31.4228 10.9365V11H30.0214L27.5361 8.10449L27.5312 7.35742H28.7665C29.1311 7.35742 29.4192 7.28255 29.6308 7.13281C29.8456 6.97982 29.9889 6.77962 30.0605 6.53223H27.4335L27.6826 5.64355H30.041C29.8815 5.139 29.4501 4.88672 28.747 4.88672H27.4335L27.6972 3.89062H32.2968L32.0478 4.78418Z" fill="white"/>
</g>
<defs>
<clipPath id="clip0_1_1626">
<rect width="38.7776" height="40" fill="white"/>
</clipPath>
</defs>
</svg>
