<svg width="223" height="130" viewBox="0 0 223 130" fill="none" xmlns="http://www.w3.org/2000/svg">
<line y1="110.099" x2="216" y2="110.099" stroke="#2E51FF" stroke-width="1.2"/>
<path d="M153.865 6.37651L202.217 37.2235L143.707 123.002L95.3629 92.1591L153.865 6.37651Z" fill="white" stroke="#2E51FF"/>
<g style="mix-blend-mode:multiply">
<path d="M96.9367 93.7336L145.47 22.798C152.192 25.5311 160.474 23.2488 165.958 17.1416L187.252 30.7277C183.699 38.0694 184.851 46.3785 190.112 51.2792L141.578 122.215L143.837 123.662L192.214 52.9482L202.886 37.0761L198.551 34.3085L158.058 8.47704L153.723 5.70944L94.6658 92.2912L96.9367 93.7336Z" fill="#DEE9FF"/>
</g>
<g style="mix-blend-mode:multiply">
<path d="M137.372 85.6402C148.294 91.3961 162.713 86.3088 169.579 74.2774C176.444 62.246 173.156 47.8265 162.234 42.0706C151.312 36.3147 136.893 41.402 130.027 53.4334C123.162 65.4648 126.45 79.8843 137.372 85.6402Z" fill="#DEE9FF"/>
</g>
<path d="M145.272 49.0095L141.342 54.5592C142.786 54.1054 144.366 54.1499 146.013 54.9929L148.609 51.3279L150.245 52.4631L147.673 56.0959C150.773 58.747 150.969 62.9486 148.051 67.3414C152.557 66.5571 157.921 66.0126 163.289 65.5265L161.003 68.7545C156.071 69.2428 151.486 69.7241 145.975 70.6146L143.947 69.2078L145.257 67.3579C147.829 63.7251 147.737 60.7545 145.647 58.9524L140.217 66.6202L138.581 65.4849L143.938 57.919C141.707 57.075 139.497 58.1967 137.424 61.1242L135.733 63.5129L133.606 62.0378L143.632 47.8792L145.269 49.0144L145.272 49.0095Z" fill="#2E51FF"/>
<path d="M87.0254 125.018C87.3307 125.054 87.6361 125.082 87.9544 125.11C89.748 125.269 91.6061 125.411 93.533 125.512M87.0254 125.018L93.533 125.512M87.0254 125.018C85.0726 124.833 83.2124 124.618 81.4468 124.36L87.0254 125.018ZM93.533 125.512L93.5592 125.013C93.5566 125.013 93.554 125.013 93.5514 125.013C93.5488 125.013 93.5461 125.012 93.5434 125.012L93.533 125.512ZM65.5166 104.391H140.803V104.394V104.409V104.424V104.439V104.454V104.47V104.486V104.502V104.518V104.534V104.551V104.567V104.584V104.601V104.619V104.636V104.654V104.671V104.689V104.707V104.726V104.744V104.763V104.782V104.801V104.82V104.839V104.859V104.878V104.898V104.918V104.939V104.959V104.98V105V105.021V105.042V105.063V105.085V105.106V105.128V105.15V105.172V105.194V105.216V105.239V105.261V105.284V105.307V105.33V105.353V105.377V105.4V105.424V105.448V105.472V105.496V105.52V105.544V105.569V105.594V105.619V105.643V105.669V105.694V105.719V105.745V105.77V105.796V105.822V105.848V105.874V105.901V105.927V105.954V105.981V106.007V106.034V106.062V106.089V106.116V106.144V106.171V106.199V106.227V106.255V106.283V106.311V106.339V106.368V106.397V106.425V106.454V106.483V106.512V106.541V106.57V106.6V106.629V106.659V106.688V106.718V106.748V106.778V106.808V106.838V106.869V106.899V106.93V106.96V106.991V107.022V107.053V107.084V107.115V107.146V107.177V107.209V107.24V107.272V107.303V107.335V107.367V107.399V107.431V107.463V107.495V107.527V107.56V107.592V107.625V107.657V107.69V107.723V107.756V107.789V107.822V107.855V107.888V107.921V107.954V107.988V108.021V108.054V108.088V108.122V108.155V108.189V108.223V108.257V108.291V108.325V108.359V108.393V108.427V108.462V108.496V108.53V108.565V108.599V108.634V108.668V108.703V108.738V108.773V108.807V108.842V108.877V108.912V108.947V108.982V109.017V109.053V109.088V109.123V109.158V109.194V109.229V109.264V109.3V109.335V109.371V109.406V109.442V109.478V109.513V109.549V109.585V109.621V109.656V109.692V109.728V109.764V109.8V109.836V109.872V109.908V109.944V109.98V110.016V110.052V110.088V110.124V110.16V110.196V110.232V110.269V110.305V110.341V110.377V110.413V110.45V110.486V110.522V110.559V110.595V110.631V110.667V110.704V110.74V110.776V110.813V110.849V110.885V110.921V110.958V110.994V111.03V111.067V111.103V111.139V111.176V111.212V111.248V111.284V111.321V111.357V111.393V111.429V111.465V111.502V111.538V111.574V111.61V111.646V111.682V111.718V111.755V111.791V111.827V111.863V111.899V111.934V111.97V112.006V112.042V112.078V112.114V112.15V112.185V112.221V112.257V112.292V112.328V112.364V112.399V112.435V112.47V112.506V112.541V112.576V112.612V112.647V112.682V112.717V112.753V112.788V112.823V112.858V112.893V112.928V112.962V112.997V113.032V113.067V113.101V113.136V113.171V113.205V113.239V113.274V113.308V113.342V113.377V113.411V113.445V113.479V113.513V113.547V113.581V113.614V113.648V113.682V113.715V113.749V113.782V113.815V113.849V113.882V113.915V113.948V113.981V114.014V114.047V114.079V114.112V114.145V114.177V114.209V114.242V114.274V114.306V114.338V114.37V114.402V114.434V114.466V114.497V114.529V114.56V114.592V114.623V114.654V114.685V114.716V114.747V114.778V114.809V114.839V114.87V114.9V114.93V114.96V114.991V115.021V115.05V115.08V115.11V115.139V115.169V115.198V115.227V115.256V115.285V115.314V115.343V115.372V115.4V115.429V115.457V115.485V115.513V115.541V115.569V115.597V115.624V115.652V115.679V115.706V115.733V115.76V115.787V115.814V115.84V115.867V115.893V115.919V115.945V115.971V115.997V116.023V116.048V116.073V116.099V116.124V116.149V116.174V116.198V116.223V116.247V116.271V116.295V116.319V116.343V116.367V116.39V116.414V116.437V116.46V116.483V116.505V116.528V116.55V116.573V116.595V116.617V116.638V116.66V116.682V116.703V116.724V116.745V116.766V116.787V116.807V116.827V116.848V116.868V116.887V116.907V116.926V116.946V116.965V116.984V117.003V117.021V117.04V117.058V117.076V117.094V117.112V117.129V117.147V117.164V117.181V117.198V117.214V117.231V117.247V117.263V117.279V117.295V117.31V117.325V117.341V117.356V117.37C140.803 118.006 140.335 118.739 139.167 119.536C138.899 119.713 138.61 119.888 138.288 120.051L138.288 120.051L138.276 120.058C136.931 120.786 135.086 121.47 132.81 122.099C132.569 122.158 132.317 122.224 132.069 122.289C132.006 122.305 131.944 122.321 131.883 122.337C130.213 122.755 128.359 123.144 126.345 123.473L126.345 123.472L126.336 123.474L126.313 123.478C126.012 123.533 125.723 123.586 125.426 123.628L125.426 123.628L125.418 123.629C123.678 123.907 121.818 124.158 119.864 124.361L119.861 124.362L118.937 124.464C118.936 124.464 118.935 124.464 118.935 124.465C117.158 124.642 115.295 124.796 113.378 124.912L113.378 124.912L113.367 124.913C113.111 124.934 112.858 124.95 112.592 124.966C112.545 124.969 112.498 124.972 112.45 124.974C110.644 125.077 108.79 125.15 106.891 125.189C106.891 125.189 106.891 125.189 106.891 125.189L105.963 125.206L105.959 125.206C104.886 125.234 103.796 125.24 102.69 125.24C101.923 125.24 101.162 125.234 100.402 125.223V125.223H100.395C100.095 125.223 99.7845 125.217 99.484 125.206L99.484 125.206L99.4715 125.206C97.779 125.189 96.1129 125.131 94.4868 125.058L65.5166 104.391ZM67.7153 120.366C67.7141 120.366 67.7129 120.365 67.7117 120.364L67.7078 120.363L67.5004 120.818L67.7153 120.366ZM68.6369 120.786L68.6286 120.783C68.6258 120.781 68.623 120.78 68.6202 120.779L68.4294 121.241L68.6369 120.786ZM75.0497 122.707C75.0492 122.707 75.0487 122.707 75.0481 122.706C75.0476 122.706 75.0472 122.706 75.0467 122.706L74.937 123.194L75.0497 122.707Z" fill="#C5D7FF" stroke="#2E51FF"/>
<path d="M140.804 103.885C140.804 104.302 140.615 104.754 140.162 105.242C139.708 105.733 139.013 106.231 138.075 106.72C136.201 107.698 133.457 108.594 130.024 109.353C123.165 110.867 113.666 111.808 103.155 111.808C92.6458 111.808 83.147 110.867 76.2888 109.353C72.8557 108.594 70.1114 107.698 68.2375 106.72C67.3001 106.231 66.6051 105.733 66.1502 105.242C65.6978 104.754 65.5085 104.302 65.5085 103.885C65.5085 103.467 65.6978 103.015 66.1503 102.527C66.6051 102.036 67.3001 101.538 68.2376 101.049C70.1114 100.07 72.8557 99.1739 76.2889 98.4155C83.147 96.9004 92.6458 95.9587 103.155 95.9587C113.665 95.9587 123.164 96.9004 130.023 98.4155C133.456 99.1739 136.201 100.07 138.075 101.049C139.012 101.538 139.707 102.036 140.162 102.527C140.615 103.015 140.804 103.467 140.804 103.885Z" fill="#C5D7FF" stroke="#2E51FF"/>
<path d="M103.155 97.9108H103.155C111.231 97.9098 118.529 98.4925 123.797 99.43C126.434 99.8995 128.539 100.454 129.972 101.057C130.691 101.359 131.212 101.662 131.546 101.952C131.882 102.245 131.969 102.471 131.969 102.626C131.969 102.781 131.883 103.006 131.546 103.299C131.212 103.588 130.691 103.891 129.972 104.193C128.539 104.796 126.435 105.349 123.797 105.818C118.529 106.755 111.231 107.337 103.155 107.337C95.0804 107.337 87.7831 106.755 82.5155 105.818C79.8776 105.349 77.7732 104.796 76.34 104.193C75.6213 103.891 75.0999 103.588 74.7663 103.299C74.4297 103.006 74.3429 102.781 74.3429 102.626C74.3429 102.471 74.4299 102.245 74.7665 101.952C75.1002 101.662 75.6217 101.359 76.3404 101.057C77.7738 100.454 79.8783 99.9002 82.5163 99.4308C87.7842 98.4935 95.0815 97.9108 103.155 97.9108Z" fill="#C5D7FF" stroke="#2E51FF"/>
<path d="M75.0042 104.078C78.544 101.906 89.8022 100.316 103.155 100.316C116.508 100.316 127.768 101.906 131.306 104.078C132.059 103.617 132.469 103.129 132.469 102.626C132.469 99.7463 119.347 97.4108 103.155 97.4108C86.9656 97.4108 73.8429 99.7463 73.8429 102.626C73.8408 103.129 74.2515 103.617 75.0042 104.078Z" fill="#2E51FF"/>
<mask id="path-10-inside-1_1_1727" fill="white">
<path d="M103.952 114.152V125.718C103.645 125.718 103.329 125.712 103.023 125.702V114.152H103.952Z"/>
</mask>
<path d="M103.952 114.152H104.952V113.152H103.952V114.152ZM103.952 125.718V126.718H104.952V125.718H103.952ZM103.023 125.702H102.023V126.67L102.991 126.701L103.023 125.702ZM103.023 114.152V113.152H102.023V114.152H103.023ZM102.952 114.152V125.718H104.952V114.152H102.952ZM103.952 124.718C103.657 124.718 103.352 124.712 103.056 124.702L102.991 126.701C103.305 126.711 103.632 126.718 103.952 126.718V124.718ZM104.023 125.702V114.152H102.023V125.702H104.023ZM103.023 115.152H103.952V113.152H103.023V115.152Z" fill="#2E51FF" fill-opacity="0.23" mask="url(#path-10-inside-1_1_1727)"/>
<mask id="path-12-inside-2_1_1727" fill="white">
<path d="M119.679 112.201V124.421C119.371 124.446 119.066 124.464 118.75 124.483V112.201H119.679Z"/>
</mask>
<path d="M119.679 112.201H120.679V111.201H119.679V112.201ZM119.679 124.421L119.763 125.417L120.679 125.34V124.421H119.679ZM118.75 124.483H117.75V125.546L118.811 125.481L118.75 124.483ZM118.75 112.201V111.201H117.75V112.201H118.75ZM118.679 112.201V124.421H120.679V112.201H118.679ZM119.595 123.424C119.302 123.449 119.012 123.465 118.689 123.485L118.811 125.481C119.12 125.462 119.441 125.444 119.763 125.417L119.595 123.424ZM119.75 124.483V112.201H117.75V124.483H119.75ZM118.75 113.201H119.679V111.201H118.75V113.201Z" fill="#2E51FF" fill-opacity="0.23" mask="url(#path-12-inside-2_1_1727)"/>
<mask id="path-14-inside-3_1_1727" fill="white">
<path d="M134.266 110.004V121.527C133.986 121.712 133.679 121.899 133.334 122.073V110.004H134.266Z"/>
</mask>
<path d="M134.266 110.004H135.266V109.004H134.266V110.004ZM134.266 121.527L134.817 122.361L135.266 122.064V121.527H134.266ZM133.334 122.073H132.334V123.7L133.786 122.965L133.334 122.073ZM133.334 110.004V109.004H132.334V110.004H133.334ZM133.266 110.004V121.527H135.266V110.004H133.266ZM133.714 120.693C133.457 120.863 133.184 121.029 132.883 121.181L133.786 122.965C134.174 122.769 134.515 122.561 134.817 122.361L133.714 120.693ZM134.334 122.073V110.004H132.334V122.073H134.334ZM133.334 111.004H134.266V109.004H133.334V111.004Z" fill="#2E51FF" fill-opacity="0.23" mask="url(#path-14-inside-3_1_1727)"/>
<mask id="path-16-inside-4_1_1727" fill="white">
<path d="M87.7133 113.185V125.106C87.3951 125.078 87.0897 125.05 86.7843 125.013V113.187H87.7133V113.185Z"/>
</mask>
<path d="M87.7133 125.106L87.6258 126.102L88.7133 126.197V125.106H87.7133ZM86.7843 125.013H85.7843V125.901L86.6654 126.006L86.7843 125.013ZM86.7843 113.187V112.187H85.7843V113.187H86.7843ZM87.7133 113.187V114.187H88.7133V113.187H87.7133ZM86.7133 113.185V125.106H88.7133V113.185H86.7133ZM87.8008 124.109C87.4833 124.082 87.1916 124.055 86.9032 124.02L86.6654 126.006C86.9878 126.045 87.3068 126.074 87.6258 126.102L87.8008 124.109ZM87.7843 125.013V113.187H85.7843V125.013H87.7843ZM86.7843 114.187H87.7133V112.187H86.7843V114.187ZM88.7133 113.187V113.185H86.7133V113.187H88.7133Z" fill="#2E51FF" fill-opacity="0.23" mask="url(#path-16-inside-4_1_1727)"/>
<mask id="path-18-inside-5_1_1727" fill="white">
<path d="M73.816 110.785V122.074C73.4999 122.001 73.1859 121.927 72.887 121.852V110.787H73.816V110.785Z"/>
</mask>
<path d="M73.816 110.785V122.074C73.4999 122.001 73.1859 121.927 72.887 121.852V110.787H73.816V110.785Z" fill="#C5D7FF"/>
<path d="M73.816 122.074L73.5907 123.048L74.816 123.331V122.074H73.816ZM72.887 121.852H71.887V122.632L72.6428 122.822L72.887 121.852ZM72.887 110.787V109.787H71.887V110.787H72.887ZM73.816 110.787V111.787H74.816V110.787H73.816ZM72.816 110.785V122.074H74.816V110.785H72.816ZM74.0413 121.099C73.7248 121.026 73.4195 120.955 73.1311 120.882L72.6428 122.822C72.9523 122.9 73.2749 122.975 73.5907 123.048L74.0413 121.099ZM73.887 121.852V110.787H71.887V121.852H73.887ZM72.887 111.787H73.816V109.787H72.887V111.787ZM74.816 110.787V110.785H72.816V110.787H74.816Z" fill="#2E51FF" mask="url(#path-18-inside-5_1_1727)"/>
<path d="M82.4517 111.655C82.7571 111.691 83.0625 111.719 83.3808 111.747C85.1744 111.906 87.0325 112.048 88.9594 112.149M82.4517 111.655L88.9594 112.149M82.4517 111.655C80.499 111.47 78.6388 111.255 76.8732 110.997L82.4517 111.655ZM88.9594 112.149L88.9855 111.65C88.983 111.65 88.9804 111.65 88.9778 111.65C88.9752 111.65 88.9725 111.65 88.9698 111.65L88.9594 112.149ZM60.943 91.0277H136.23V91.0314V91.0462V91.0612V91.0763V91.0917V91.1073V91.123V91.139V91.1551V91.1714V91.1879V91.2046V91.2214V91.2385V91.2557V91.2731V91.2907V91.3085V91.3265V91.3446V91.3629V91.3814V91.4001V91.4189V91.4379V91.4571V91.4765V91.496V91.5157V91.5356V91.5556V91.5758V91.5962V91.6167V91.6374V91.6583V91.6793V91.7005V91.7219V91.7434V91.7651V91.7869V91.8089V91.8311V91.8534V91.8758V91.8985V91.9212V91.9442V91.9672V91.9905V92.0138V92.0374V92.061V92.0849V92.1088V92.133V92.1572V92.1816V92.2062V92.2309V92.2557V92.2807V92.3058V92.3311V92.3565V92.382V92.4077V92.4335V92.4594V92.4855V92.5117V92.538V92.5645V92.5911V92.6178V92.6447V92.6717V92.6988V92.726V92.7534V92.7809V92.8085V92.8362V92.8641V92.8921V92.9202V92.9484V92.9767V93.0052V93.0337V93.0624V93.0912V93.1201V93.1491V93.1783V93.2075V93.2369V93.2664V93.2959V93.3256V93.3554V93.3853V93.4153V93.4454V93.4756V93.5059V93.5364V93.5669V93.5975V93.6282V93.659V93.6899V93.7209V93.752V93.7832V93.8145V93.8459V93.8774V93.909V93.9406V93.9724V94.0042V94.0361V94.0681V94.1002V94.1324V94.1647V94.197V94.2295V94.262V94.2946V94.3273V94.36V94.3928V94.4257V94.4587V94.4918V94.5249V94.5581V94.5914V94.6248V94.6582V94.6917V94.7253V94.7589V94.7926V94.8264V94.8602V94.8941V94.9281V94.9621V94.9962V95.0304V95.0646V95.0988V95.1332V95.1676V95.202V95.2365V95.2711V95.3057V95.3404V95.3751V95.4099V95.4447V95.4796V95.5145V95.5495V95.5845V95.6195V95.6547V95.6898V95.725V95.7603V95.7956V95.8309V95.8663V95.9017V95.9371V95.9726V96.0081V96.0437V96.0793V96.1149V96.1506V96.1863V96.222V96.2578V96.2936V96.3294V96.3653V96.4011V96.437V96.473V96.5089V96.5449V96.5809V96.6169V96.653V96.6891V96.7252V96.7613V96.7974V96.8335V96.8697V96.9059V96.9421V96.9783V97.0145V97.0507V97.0869V97.1232V97.1595V97.1957V97.232V97.2683V97.3046V97.3409V97.3772V97.4135V97.4498V97.4861V97.5224V97.5587V97.595V97.6313V97.6676V97.7039V97.7402V97.7765V97.8128V97.849V97.8853V97.9216V97.9578V97.9941V98.0303V98.0665V98.1027V98.1389V98.1751V98.2112V98.2473V98.2835V98.3196V98.3557V98.3917V98.4278V98.4638V98.4998V98.5358V98.5717V98.6076V98.6435V98.6794V98.7152V98.7511V98.7868V98.8226V98.8583V98.894V98.9297V98.9653V99.0009V99.0364V99.0719V99.1074V99.1429V99.1783V99.2136V99.2489V99.2842V99.3195V99.3547V99.3898V99.4249V99.46V99.495V99.5299V99.5648V99.5997V99.6345V99.6693V99.704V99.7386V99.7732V99.8078V99.8423V99.8767V99.9111V99.9454V99.9796V100.014V100.048V100.082V100.116V100.15V100.184V100.218V100.251V100.285V100.319V100.352V100.386V100.419V100.453V100.486V100.519V100.552V100.585V100.618V100.651V100.684V100.717V100.749V100.782V100.814V100.847V100.879V100.911V100.943V100.975V101.007V101.039V101.071V101.103V101.135V101.166V101.198V101.229V101.26V101.291V101.322V101.353V101.384V101.415V101.446V101.476V101.507V101.537V101.567V101.598V101.628V101.658V101.688V101.717V101.747V101.777V101.806V101.835V101.865V101.894V101.923V101.952V101.98V102.009V102.037V102.066V102.094V102.122V102.15V102.178V102.206V102.234V102.261V102.289V102.316V102.343V102.371V102.398V102.424V102.451V102.478V102.504V102.53V102.556V102.583V102.608V102.634V102.66V102.685V102.711V102.736V102.761V102.786V102.811V102.835V102.86V102.884V102.908V102.933V102.956V102.98V103.004V103.027V103.051V103.074V103.097V103.12V103.143V103.165V103.188V103.21V103.232V103.254V103.276V103.297V103.319V103.34V103.361V103.382V103.403V103.424V103.444V103.465V103.485V103.505V103.525V103.544V103.564V103.583V103.602V103.621V103.64V103.658V103.677V103.695V103.713V103.731V103.749V103.766V103.784V103.801V103.818V103.835V103.851V103.868V103.884V103.9V103.916V103.932V103.947V103.963V103.978V103.993V104.007C136.23 104.643 135.762 105.377 134.593 106.173C134.326 106.35 134.036 106.526 133.715 106.688L133.715 106.688L133.702 106.695C132.357 107.423 130.512 108.108 128.236 108.737C127.995 108.795 127.743 108.861 127.495 108.926C127.433 108.942 127.371 108.959 127.309 108.975C125.64 109.393 123.785 109.781 121.772 110.11L121.772 110.11L121.763 110.111L121.739 110.116C121.438 110.17 121.15 110.223 120.852 110.265L120.852 110.265L120.844 110.267C119.104 110.545 117.245 110.795 115.291 110.998L115.287 110.999L114.364 111.101C114.363 111.102 114.362 111.102 114.361 111.102C112.585 111.28 110.721 111.434 108.805 111.549L108.805 111.549L108.793 111.55C108.538 111.572 108.285 111.587 108.018 111.603C107.971 111.606 107.924 111.609 107.876 111.612C106.07 111.715 104.216 111.787 102.317 111.826C102.317 111.826 102.317 111.826 102.317 111.826L101.389 111.843L101.385 111.843C100.312 111.871 99.2224 111.877 98.1165 111.877C97.3494 111.877 96.5883 111.871 95.8289 111.86V111.86H95.8218C95.521 111.86 95.2109 111.854 94.9104 111.843L94.9104 111.843L94.8978 111.843C93.2054 111.826 91.5393 111.768 89.9132 111.695L60.943 91.0277ZM63.1417 107.003C63.1405 107.003 63.1393 107.002 63.1381 107.002L63.1342 107L62.9268 107.455L63.1417 107.003ZM64.0633 107.424L64.055 107.42C64.0522 107.419 64.0494 107.417 64.0466 107.416L63.8558 107.878L64.0633 107.424ZM70.4761 109.344C70.4756 109.344 70.475 109.344 70.4745 109.344C70.474 109.344 70.4736 109.343 70.4731 109.343L70.3634 109.831L70.4761 109.344Z" fill="#C5D7FF" stroke="#2E51FF"/>
<path d="M136.23 90.5247C136.23 90.9421 136.041 91.3942 135.589 91.8824C135.134 92.3732 134.439 92.8707 133.501 93.3601C131.627 94.3385 128.883 95.2346 125.45 95.9928C118.591 97.5073 109.092 98.4485 98.5814 98.4485C88.072 98.4485 78.5732 97.5073 71.715 95.9928C68.2818 95.2346 65.5375 94.3385 63.6637 93.3601C62.7262 92.8707 62.0312 92.3732 61.5764 91.8824C61.124 91.3942 60.9347 90.9421 60.9347 90.5247C60.9347 90.1074 61.124 89.6553 61.5764 89.167C62.0312 88.6761 62.7262 88.1785 63.6637 87.689C65.5376 86.7104 68.2819 85.8141 71.715 85.0556C78.5732 83.5405 88.072 82.5988 98.5814 82.5988C109.091 82.5988 118.59 83.5405 125.449 85.0556C128.882 85.8141 131.627 86.7105 133.501 87.689C134.439 88.1785 135.134 88.6761 135.589 89.167C136.041 89.6553 136.23 90.1074 136.23 90.5247Z" fill="#C5D7FF" stroke="#2E51FF"/>
<path d="M70.4306 90.717C73.9704 88.5449 85.2286 86.9556 98.5815 86.9556C111.934 86.9556 123.195 88.5449 126.732 90.717C127.485 90.2568 127.896 89.7686 127.896 89.2654C127.896 86.3857 114.773 84.0502 98.5815 84.0502C82.392 84.0502 69.2693 86.3857 69.2693 89.2654C69.2671 89.7686 69.6779 90.2568 70.4306 90.717Z" fill="#2E51FF"/>
<mask id="path-23-inside-6_1_1727" fill="white">
<path d="M99.3789 100.791V112.357C99.0713 112.357 98.7552 112.351 98.4498 112.341V100.791H99.3789Z"/>
</mask>
<path d="M99.3789 100.791H100.379V99.7914H99.3789V100.791ZM99.3789 112.357V113.357H100.379V112.357H99.3789ZM98.4498 112.341H97.4498V113.309L98.4174 113.341L98.4498 112.341ZM98.4498 100.791V99.7914H97.4498V100.791H98.4498ZM98.3789 100.791V112.357H100.379V100.791H98.3789ZM99.3789 111.357C99.0838 111.357 98.7786 111.351 98.4823 111.342L98.4174 113.341C98.7318 113.351 99.0589 113.357 99.3789 113.357V111.357ZM99.4498 112.341V100.791H97.4498V112.341H99.4498ZM98.4498 101.791H99.3789V99.7914H98.4498V101.791Z" fill="#2E51FF" fill-opacity="0.23" mask="url(#path-23-inside-6_1_1727)"/>
<mask id="path-25-inside-7_1_1727" fill="white">
<path d="M115.105 98.8383V111.058C114.798 111.084 114.493 111.101 114.176 111.12V98.8383H115.105Z"/>
</mask>
<path d="M115.105 98.8383H116.105V97.8383H115.105V98.8383ZM115.105 111.058L115.189 112.054L116.105 111.977V111.058H115.105ZM114.176 111.12H113.176V112.183L114.238 112.118L114.176 111.12ZM114.176 98.8383V97.8383H113.176V98.8383H114.176ZM114.105 98.8383V111.058H116.105V98.8383H114.105ZM115.022 110.061C114.729 110.086 114.438 110.102 114.115 110.122L114.238 112.118C114.547 112.099 114.867 112.081 115.189 112.054L115.022 110.061ZM115.176 111.12V98.8383H113.176V111.12H115.176ZM114.176 99.8383H115.105V97.8383H114.176V99.8383Z" fill="#2E51FF" fill-opacity="0.23" mask="url(#path-25-inside-7_1_1727)"/>
<mask id="path-27-inside-8_1_1727" fill="white">
<path d="M129.692 96.6435V108.166C129.413 108.351 129.105 108.538 128.761 108.712V96.6435H129.692Z"/>
</mask>
<path d="M129.692 96.6435H130.692V95.6435H129.692V96.6435ZM129.692 108.166L130.244 109L130.692 108.704V108.166H129.692ZM128.761 108.712H127.761V110.34L129.213 109.605L128.761 108.712ZM128.761 96.6435V95.6435H127.761V96.6435H128.761ZM128.692 96.6435V108.166H130.692V96.6435H128.692ZM129.14 107.332C128.884 107.502 128.61 107.668 128.309 107.82L129.213 109.605C129.6 109.409 129.942 109.2 130.244 109L129.14 107.332ZM129.761 108.712V96.6435H127.761V108.712H129.761ZM128.761 97.6435H129.692V95.6435H128.761V97.6435Z" fill="#2E51FF" fill-opacity="0.23" mask="url(#path-27-inside-8_1_1727)"/>
<mask id="path-29-inside-9_1_1727" fill="white">
<path d="M83.1387 99.8242V111.745C82.8205 111.717 82.5151 111.689 82.2097 111.652V99.8263H83.1387V99.8242Z"/>
</mask>
<path d="M83.1387 111.745L83.0512 112.741L84.1387 112.836V111.745H83.1387ZM82.2097 111.652H81.2097V112.54L82.0908 112.645L82.2097 111.652ZM82.2097 99.8263V98.8263H81.2097V99.8263H82.2097ZM83.1387 99.8263V100.826H84.1387V99.8263H83.1387ZM82.1387 99.8242V111.745H84.1387V99.8242H82.1387ZM83.2263 110.749C82.9087 110.721 82.617 110.694 82.3286 110.659L82.0908 112.645C82.4132 112.684 82.7323 112.713 83.0512 112.741L83.2263 110.749ZM83.2097 111.652V99.8263H81.2097V111.652H83.2097ZM82.2097 100.826H83.1387V98.8263H82.2097V100.826ZM84.1387 99.8263V99.8242H82.1387V99.8263H84.1387Z" fill="#2E51FF" fill-opacity="0.23" mask="url(#path-29-inside-9_1_1727)"/>
<mask id="path-31-inside-10_1_1727" fill="white">
<path d="M69.2434 97.4267V108.715C68.9272 108.642 68.6133 108.569 68.3143 108.493V97.4288H69.2434V97.4267Z"/>
</mask>
<path d="M69.2434 97.4267V108.715C68.9272 108.642 68.6133 108.569 68.3143 108.493V97.4288H69.2434V97.4267Z" fill="#C5D7FF"/>
<path d="M69.2434 108.715L69.018 109.689L70.2434 109.973V108.715H69.2434ZM68.3143 108.493H67.3143V109.273L68.0702 109.463L68.3143 108.493ZM68.3143 97.4288V96.4288H67.3143V97.4288H68.3143ZM69.2434 97.4288V98.4288H70.2434V97.4288H69.2434ZM68.2434 97.4267V108.715H70.2434V97.4267H68.2434ZM69.4687 107.741C69.1522 107.668 68.8469 107.596 68.5585 107.524L68.0702 109.463C68.3796 109.541 68.7023 109.616 69.018 109.689L69.4687 107.741ZM69.3143 108.493V97.4288H67.3143V108.493H69.3143ZM68.3143 98.4288H69.2434V96.4288H68.3143V98.4288ZM70.2434 97.4288V97.4267H68.2434V97.4288H70.2434Z" fill="#2E51FF" mask="url(#path-31-inside-10_1_1727)"/>
<path d="M89.8673 92.8913C90.1727 92.9279 90.478 92.9558 90.7963 92.9838C92.5899 93.1429 94.448 93.2849 96.3749 93.3859M89.8673 92.8913L96.3749 93.3859M89.8673 92.8913C87.9146 92.7064 86.0543 92.4913 84.2887 92.2332L89.8673 92.8913ZM96.3749 93.3859L96.4011 92.8866C96.3985 92.8865 96.3959 92.8864 96.3934 92.8862C96.3907 92.8862 96.388 92.8861 96.3854 92.8861L96.3749 93.3859ZM68.3585 72.2642H143.645V72.2678V72.2826V72.2976V72.3128V72.3282V72.3437V72.3595V72.3754V72.3915V72.4078V72.4243V72.441V72.4579V72.4749V72.4922V72.5096V72.5272V72.545V72.5629V72.5811V72.5994V72.6179V72.6365V72.6554V72.6744V72.6936V72.7129V72.7324V72.7521V72.772V72.7921V72.8123V72.8326V72.8532V72.8739V72.8947V72.9158V72.937V72.9583V72.9799V73.0015V73.0234V73.0454V73.0675V73.0898V73.1123V73.1349V73.1577V73.1806V73.2037V73.2269V73.2503V73.2738V73.2975V73.3213V73.3453V73.3694V73.3937V73.4181V73.4426V73.4673V73.4922V73.5172V73.5423V73.5675V73.5929V73.6185V73.6441V73.6699V73.6959V73.7219V73.7481V73.7745V73.801V73.8276V73.8543V73.8811V73.9081V73.9352V73.9625V73.9898V74.0173V74.0449V74.0727V74.1005V74.1285V74.1566V74.1848V74.2132V74.2416V74.2702V74.2989V74.3277V74.3566V74.3856V74.4147V74.444V74.4733V74.5028V74.5324V74.5621V74.5919V74.6218V74.6518V74.6819V74.7121V74.7424V74.7728V74.8033V74.8339V74.8647V74.8955V74.9264V74.9574V74.9885V75.0197V75.051V75.0824V75.1138V75.1454V75.1771V75.2088V75.2407V75.2726V75.3046V75.3367V75.3689V75.4011V75.4335V75.4659V75.4984V75.531V75.5637V75.5965V75.6293V75.6622V75.6952V75.7282V75.7614V75.7946V75.8279V75.8612V75.8947V75.9282V75.9617V75.9954V76.0291V76.0628V76.0967V76.1306V76.1645V76.1986V76.2327V76.2668V76.301V76.3353V76.3696V76.404V76.4385V76.473V76.5075V76.5421V76.5768V76.6115V76.6463V76.6811V76.716V76.7509V76.7859V76.8209V76.856V76.8911V76.9263V76.9615V76.9967V77.032V77.0673V77.1027V77.1381V77.1736V77.2091V77.2446V77.2801V77.3157V77.3514V77.387V77.4227V77.4585V77.4942V77.53V77.5659V77.6017V77.6376V77.6735V77.7094V77.7454V77.7814V77.8174V77.8534V77.8894V77.9255V77.9616V77.9977V78.0338V78.07V78.1061V78.1423V78.1785V78.2147V78.2509V78.2872V78.3234V78.3596V78.3959V78.4322V78.4685V78.5047V78.541V78.5773V78.6136V78.6499V78.6862V78.7225V78.7588V78.7951V78.8315V78.8678V78.9041V78.9404V78.9766V79.0129V79.0492V79.0855V79.1218V79.158V79.1943V79.2305V79.2667V79.3029V79.3391V79.3753V79.4115V79.4477V79.4838V79.5199V79.556V79.5921V79.6282V79.6642V79.7002V79.7362V79.7722V79.8082V79.8441V79.88V79.9158V79.9517V79.9875V80.0233V80.059V80.0948V80.1305V80.1661V80.2017V80.2373V80.2729V80.3084V80.3439V80.3793V80.4147V80.4501V80.4854V80.5207V80.5559V80.5911V80.6262V80.6614V80.6964V80.7314V80.7664V80.8013V80.8361V80.871V80.9057V80.9404V80.9751V81.0097V81.0442V81.0787V81.1131V81.1475V81.1818V81.2161V81.2503V81.2844V81.3185V81.3525V81.3865V81.4203V81.4542V81.4879V81.5216V81.5552V81.5888V81.6222V81.6556V81.689V81.7222V81.7554V81.7885V81.8216V81.8546V81.8874V81.9203V81.953V81.9856V82.0182V82.0507V82.0831V82.1154V82.1477V82.1798V82.2119V82.2439V82.2758V82.3076V82.3393V82.371V82.4025V82.434V82.4653V82.4966V82.5278V82.5588V82.5898V82.6207V82.6515V82.6822V82.7128V82.7433V82.7736V82.8039V82.8341V82.8642V82.8942V82.924V82.9538V82.9835V83.013V83.0424V83.0718V83.101V83.1301V83.1591V83.188V83.2167V83.2454V83.2739V83.3023V83.3306V83.3588V83.3869V83.4148V83.4427V83.4704V83.4979V83.5254V83.5527V83.5799V83.607V83.634V83.6608V83.6875V83.714V83.7405V83.7668V83.7929V83.819V83.8449V83.8706V83.8963V83.9218V83.9471V83.9723V83.9974V84.0224V84.0472V84.0718V84.0963V84.1207V84.1449V84.169V84.1929V84.2167V84.2404V84.2639V84.2872V84.3104V84.3334V84.3563V84.379V84.4016V84.424V84.4463V84.4684V84.4904V84.5121V84.5338V84.5553V84.5766V84.5977V84.6187V84.6395V84.6602V84.6807V84.701V84.7212V84.7412V84.761V84.7806V84.8001V84.8194V84.8386V84.8575V84.8763V84.8949V84.9134V84.9316V84.9497V84.9676V84.9854V85.0029V85.0203V85.0375V85.0545V85.0713V85.0879V85.1044V85.1206V85.1367V85.1526V85.1683V85.1838V85.1991V85.2142V85.2292V85.2439C143.645 85.8796 143.177 86.613 142.009 87.4094C141.741 87.5863 141.452 87.7621 141.13 87.9247L141.13 87.9246L141.118 87.9312C139.773 88.6598 137.927 89.344 135.651 89.973C135.411 90.0319 135.159 90.0977 134.91 90.1627C134.848 90.1789 134.786 90.1951 134.725 90.2111C133.055 90.629 131.201 91.0174 129.187 91.3462L129.187 91.3462L129.178 91.3478L129.155 91.3521C128.854 91.4068 128.565 91.4592 128.268 91.5017L128.268 91.5016L128.26 91.503C126.52 91.7812 124.66 92.0316 122.706 92.2349L122.703 92.2352L121.779 92.3379C121.778 92.338 121.777 92.3381 121.776 92.3382C120 92.516 118.137 92.6701 116.22 92.7858L116.22 92.7856L116.209 92.7866C115.953 92.808 115.7 92.8234 115.434 92.8395C115.387 92.8423 115.34 92.8452 115.292 92.8481C113.485 92.951 111.632 93.0238 109.733 93.0624C109.733 93.0624 109.733 93.0624 109.733 93.0624L108.805 93.0796L108.801 93.0797C107.728 93.1075 106.638 93.1139 105.532 93.1139C104.765 93.1139 104.004 93.1075 103.244 93.0967V93.0967H103.237C102.937 93.0967 102.626 93.0904 102.326 93.0798L102.326 93.0796L102.313 93.0795C100.621 93.0624 98.9549 93.0047 97.3288 92.9317L68.3585 72.2642ZM70.5572 88.2398C70.556 88.2392 70.5548 88.2386 70.5536 88.2381L70.5498 88.2363L70.3423 88.6913L70.5572 88.2398ZM71.4788 88.66L71.4705 88.6562C71.4677 88.6551 71.4649 88.6539 71.4621 88.6527L71.2713 89.1149L71.4788 88.66ZM77.8916 90.5805C77.8911 90.5804 77.8906 90.5803 77.89 90.5801C77.8896 90.58 77.8891 90.5799 77.8886 90.5798L77.779 91.0677L77.8916 90.5805Z" fill="#C5D7FF" stroke="#2E51FF"/>
<path d="M143.646 71.7622C143.646 72.1795 143.457 72.6316 143.004 73.1198C142.55 73.6106 141.855 74.1081 140.917 74.5976C139.043 75.5759 136.299 76.472 132.866 77.2302C126.007 78.7448 116.508 79.6859 105.997 79.6859C95.4877 79.6859 85.9889 78.7448 79.1307 77.2302C75.6976 76.472 72.9533 75.5759 71.0795 74.5976C70.142 74.1081 69.447 73.6106 68.9922 73.1198C68.5397 72.6316 68.3505 72.1795 68.3505 71.7622C68.3505 71.3448 68.5398 70.8927 68.9922 70.4044C69.447 69.9135 70.142 69.416 71.0795 68.9264C72.9533 67.9479 75.6976 67.0515 79.1308 66.2931C85.989 64.7779 95.4878 63.8362 105.997 63.8362C116.507 63.8362 126.006 64.7779 132.865 66.2931C136.298 67.0515 139.043 67.9479 140.917 68.9264C141.854 69.416 142.549 69.9136 143.004 70.4044C143.457 70.8927 143.646 71.3448 143.646 71.7622Z" fill="#C5D7FF" stroke="#2E51FF"/>
<mask id="path-35-inside-11_1_1727" fill="white">
<path d="M106.796 82.0279V93.5934C106.489 93.5934 106.173 93.5874 105.867 93.5775V82.0279H106.796Z"/>
</mask>
<path d="M106.796 82.0279H107.796V81.0279H106.796V82.0279ZM106.796 93.5934V94.5934H107.796V93.5934H106.796ZM105.867 93.5775H104.867V94.5455L105.835 94.577L105.867 93.5775ZM105.867 82.0279V81.0279H104.867V82.0279H105.867ZM105.796 82.0279V93.5934H107.796V82.0279H105.796ZM106.796 92.5934C106.501 92.5934 106.196 92.5876 105.9 92.578L105.835 94.577C106.149 94.5872 106.476 94.5934 106.796 94.5934V92.5934ZM106.867 93.5775V82.0279H104.867V93.5775H106.867ZM105.867 83.0279H106.796V81.0279H105.867V83.0279Z" fill="#2E51FF" fill-opacity="0.23" mask="url(#path-35-inside-11_1_1727)"/>
<mask id="path-37-inside-12_1_1727" fill="white">
<path d="M122.521 80.077V92.2965C122.213 92.3223 121.908 92.3395 121.592 92.3588V80.077H122.521Z"/>
</mask>
<path d="M122.521 80.077H123.521V79.077H122.521V80.077ZM122.521 92.2965L122.605 93.293L123.521 93.2161V92.2965H122.521ZM121.592 92.3588H120.592V93.4219L121.653 93.357L121.592 92.3588ZM121.592 80.077V79.077H120.592V80.077H121.592ZM121.521 80.077V92.2965H123.521V80.077H121.521ZM122.437 91.3C122.144 91.3246 121.854 91.3409 121.531 91.3607L121.653 93.357C121.962 93.338 122.283 93.32 122.605 93.293L122.437 91.3ZM122.592 92.3588V80.077H120.592V92.3588H122.592ZM121.592 81.077H122.521V79.077H121.592V81.077Z" fill="#2E51FF" fill-opacity="0.23" mask="url(#path-37-inside-12_1_1727)"/>
<mask id="path-39-inside-13_1_1727" fill="white">
<path d="M137.109 77.8819V89.4046C136.829 89.5896 136.522 89.7767 136.177 89.9509V77.8819H137.109Z"/>
</mask>
<path d="M137.109 77.8819H138.109V76.8819H137.109V77.8819ZM137.109 89.4046L137.66 90.2386L138.109 89.9421V89.4046H137.109ZM136.177 89.9509H135.177V91.578L136.629 90.8431L136.177 89.9509ZM136.177 77.8819V76.8819H135.177V77.8819H136.177ZM136.109 77.8819V89.4046H138.109V77.8819H136.109ZM136.557 88.5706C136.3 88.7405 136.027 88.9064 135.726 89.0587L136.629 90.8431C137.017 90.6469 137.358 90.4386 137.66 90.2386L136.557 88.5706ZM137.177 89.9509V77.8819H135.177V89.9509H137.177ZM136.177 78.8819H137.109V76.8819H136.177V78.8819Z" fill="#2E51FF" fill-opacity="0.23" mask="url(#path-39-inside-13_1_1727)"/>
<mask id="path-41-inside-14_1_1727" fill="white">
<path d="M90.5543 81.0628V92.9834C90.236 92.9554 89.9306 92.9275 89.6252 92.8909V81.065H90.5543V81.0628Z"/>
</mask>
<path d="M90.5543 92.9834L90.4668 93.9795L91.5543 94.0751V92.9834H90.5543ZM89.6252 92.8909H88.6252V93.7783L89.5064 93.8838L89.6252 92.8909ZM89.6252 81.065V80.065H88.6252V81.065H89.6252ZM90.5543 81.065V82.065H91.5543V81.065H90.5543ZM89.5543 81.0628V92.9834H91.5543V81.0628H89.5543ZM90.6418 91.9872C90.3242 91.9593 90.0325 91.9325 89.7441 91.898L89.5064 93.8838C89.8287 93.9224 90.1478 93.9515 90.4668 93.9795L90.6418 91.9872ZM90.6252 92.8909V81.065H88.6252V92.8909H90.6252ZM89.6252 82.065H90.5543V80.065H89.6252V82.065ZM91.5543 81.065V81.0628H89.5543V81.065H91.5543Z" fill="#2E51FF" fill-opacity="0.23" mask="url(#path-41-inside-14_1_1727)"/>
<mask id="path-43-inside-15_1_1727" fill="white">
<path d="M76.659 78.6631V89.9515C76.3429 89.8783 76.0289 89.8052 75.73 89.7299V78.6653H76.659V78.6631Z"/>
</mask>
<path d="M76.659 78.6631V89.9515C76.3429 89.8783 76.0289 89.8052 75.73 89.7299V78.6653H76.659V78.6631Z" fill="#C5D7FF"/>
<path d="M76.659 89.9515L76.4337 90.9257L77.659 91.2092V89.9515H76.659ZM75.73 89.7299H74.73V90.5094L75.4858 90.6997L75.73 89.7299ZM75.73 78.6653V77.6653H74.73V78.6653H75.73ZM76.659 78.6653V79.6653H77.659V78.6653H76.659ZM75.659 78.6631V89.9515H77.659V78.6631H75.659ZM76.8844 88.9772C76.5678 88.904 76.2625 88.8328 75.9742 88.7602L75.4858 90.6997C75.7953 90.7776 76.118 90.8527 76.4337 90.9257L76.8844 88.9772ZM76.73 89.7299V78.6653H74.73V89.7299H76.73ZM75.73 79.6653H76.659V77.6653H75.73V79.6653ZM77.659 78.6653V78.6631H75.659V78.6653H77.659Z" fill="#2E51FF" mask="url(#path-43-inside-15_1_1727)"/>
<path d="M81.9876 78.4026C82.293 78.4391 82.5984 78.4671 82.9167 78.495C84.7103 78.6542 86.5683 78.7961 88.4952 78.8972M81.9876 78.4026L88.4952 78.8972M81.9876 78.4026C80.0349 78.2176 78.1747 78.0025 76.4091 77.7445L81.9876 78.4026ZM88.4952 78.8972L88.5214 78.3979C88.5189 78.3977 88.5163 78.3976 88.5137 78.3975C88.5111 78.3974 88.5084 78.3973 88.5057 78.3973L88.4952 78.8972ZM60.4789 57.7754H135.766V57.7791V57.7939V57.8088V57.824V57.8394V57.8549V57.8707V57.8866V57.9028V57.9191V57.9356V57.9523V57.9691V57.9862V58.0034V58.0208V58.0384V58.0562V58.0742V58.0923V58.1106V58.1291V58.1478V58.1666V58.1856V58.2048V58.2242V58.2437V58.2634V58.2832V58.3033V58.3235V58.3439V58.3644V58.3851V58.406V58.427V58.4482V58.4696V58.4911V58.5128V58.5346V58.5566V58.5787V58.6011V58.6235V58.6461V58.6689V58.6918V58.7149V58.7381V58.7615V58.7851V58.8087V58.8326V58.8565V58.8806V58.9049V58.9293V58.9539V58.9786V59.0034V59.0284V59.0535V59.0788V59.1042V59.1297V59.1554V59.1812V59.2071V59.2332V59.2594V59.2857V59.3122V59.3388V59.3655V59.3924V59.4194V59.4465V59.4737V59.5011V59.5286V59.5562V59.5839V59.6118V59.6397V59.6678V59.6961V59.7244V59.7528V59.7814V59.8101V59.8389V59.8678V59.8968V59.926V59.9552V59.9846V60.014V60.0436V60.0733V60.1031V60.133V60.163V60.1931V60.2233V60.2536V60.284V60.3146V60.3452V60.3759V60.4067V60.4376V60.4686V60.4997V60.5309V60.5622V60.5936V60.6251V60.6566V60.6883V60.72V60.7519V60.7838V60.8158V60.8479V60.8801V60.9124V60.9447V60.9772V61.0097V61.0423V61.0749V61.1077V61.1405V61.1734V61.2064V61.2395V61.2726V61.3058V61.3391V61.3725V61.4059V61.4394V61.473V61.5066V61.5403V61.5741V61.6079V61.6418V61.6758V61.7098V61.7439V61.778V61.8122V61.8465V61.8809V61.9152V61.9497V61.9842V62.0188V62.0534V62.088V62.1228V62.1575V62.1924V62.2272V62.2622V62.2971V62.3322V62.3672V62.4023V62.4375V62.4727V62.5079V62.5432V62.5786V62.6139V62.6494V62.6848V62.7203V62.7558V62.7914V62.827V62.8626V62.8983V62.934V62.9697V63.0055V63.0413V63.0771V63.1129V63.1488V63.1847V63.2207V63.2566V63.2926V63.3286V63.3646V63.4007V63.4367V63.4728V63.5089V63.5451V63.5812V63.6174V63.6535V63.6897V63.7259V63.7622V63.7984V63.8346V63.8709V63.9071V63.9434V63.9797V64.016V64.0523V64.0886V64.1249V64.1612V64.1975V64.2338V64.2701V64.3064V64.3427V64.379V64.4153V64.4516V64.4879V64.5242V64.5604V64.5967V64.633V64.6692V64.7055V64.7417V64.778V64.8142V64.8504V64.8866V64.9227V64.9589V64.995V65.0311V65.0673V65.1033V65.1394V65.1754V65.2115V65.2475V65.2834V65.3194V65.3553V65.3912V65.4271V65.4629V65.4987V65.5345V65.5703V65.606V65.6417V65.6773V65.713V65.7486V65.7841V65.8196V65.8551V65.8905V65.9259V65.9613V65.9966V66.0319V66.0671V66.1023V66.1375V66.1726V66.2076V66.2426V66.2776V66.3125V66.3474V66.3822V66.4169V66.4517V66.4863V66.5209V66.5555V66.5899V66.6244V66.6587V66.6931V66.7273V66.7615V66.7957V66.8297V66.8637V66.8977V66.9316V66.9654V66.9991V67.0328V67.0664V67.1V67.1335V67.1669V67.2002V67.2335V67.2667V67.2998V67.3328V67.3658V67.3987V67.4315V67.4642V67.4969V67.5294V67.5619V67.5943V67.6267V67.6589V67.6911V67.7231V67.7551V67.787V67.8188V67.8506V67.8822V67.9137V67.9452V67.9766V68.0078V68.039V68.0701V68.1011V68.1319V68.1627V68.1934V68.224V68.2545V68.2849V68.3152V68.3453V68.3754V68.4054V68.4353V68.465V68.4947V68.5242V68.5537V68.583V68.6122V68.6413V68.6703V68.6992V68.728V68.7566V68.7852V68.8136V68.8419V68.8701V68.8981V68.9261V68.9539V68.9816V69.0092V69.0366V69.064V69.0912V69.1182V69.1452V69.172V69.1987V69.2253V69.2517V69.278V69.3042V69.3302V69.3561V69.3819V69.4075V69.433V69.4584V69.4836V69.5087V69.5336V69.5584V69.5831V69.6076V69.6319V69.6562V69.6802V69.7042V69.728V69.7516V69.7751V69.7984V69.8216V69.8446V69.8675V69.8903V69.9128V69.9353V69.9575V69.9796V70.0016V70.0234V70.045V70.0665V70.0878V70.1089V70.1299V70.1508V70.1714V70.1919V70.2122V70.2324V70.2524V70.2722V70.2919V70.3113V70.3307V70.3498V70.3688V70.3876V70.4062V70.4246V70.4429V70.461V70.4789V70.4966V70.5141V70.5315V70.5487V70.5657V70.5825V70.5991V70.6156V70.6319V70.6479V70.6638V70.6795V70.695V70.7103V70.7255V70.7404V70.7551C135.766 71.3909 135.298 72.1243 134.129 72.9207C133.862 73.0975 133.572 73.2733 133.251 73.436L133.251 73.4358L133.238 73.4424C131.893 74.1711 130.048 74.8552 127.772 75.4842C127.531 75.5431 127.279 75.609 127.031 75.6739C126.969 75.6902 126.907 75.7064 126.845 75.7224C125.175 76.1402 123.321 76.5286 121.308 76.8575L121.308 76.8574L121.299 76.859L121.275 76.8633C120.974 76.918 120.686 76.9705 120.388 77.0129L120.388 77.0129L120.38 77.0142C118.64 77.2924 116.781 77.5428 114.827 77.7461L114.823 77.7465L113.9 77.8491C113.899 77.8492 113.898 77.8493 113.897 77.8494C112.121 78.0272 110.257 78.1814 108.341 78.297L108.341 78.2969L108.329 78.2979C108.074 78.3193 107.82 78.3346 107.554 78.3507C107.507 78.3536 107.46 78.3564 107.412 78.3593C105.606 78.4622 103.752 78.535 101.853 78.5736C101.853 78.5736 101.853 78.5736 101.853 78.5736L100.925 78.5908L100.921 78.5909C99.848 78.6187 98.7583 78.6251 97.6524 78.6251C96.8853 78.6251 96.1242 78.6187 95.3648 78.608V78.6079H95.3577C95.0569 78.6079 94.7467 78.6016 94.4463 78.591L94.4463 78.5909L94.4337 78.5908C92.7413 78.5736 91.0752 78.5159 89.4491 78.443L60.4789 57.7754ZM62.6776 73.751C62.6764 73.7505 62.6751 73.7499 62.6739 73.7493L62.6701 73.7476L62.4627 74.2025L62.6776 73.751ZM63.5992 74.1712L63.5909 74.1674C63.5881 74.1663 63.5853 74.1651 63.5825 74.164L63.3917 74.6262L63.5992 74.1712ZM70.012 76.0917C70.0115 76.0916 70.0109 76.0915 70.0104 76.0914C70.0099 76.0913 70.0094 76.0912 70.009 76.0911L69.8993 76.5789L70.012 76.0917Z" fill="#C5D7FF" stroke="#2E51FF"/>
<path d="M135.766 57.2736C135.766 57.691 135.577 58.1431 135.125 58.6313C134.67 59.1221 133.975 59.6196 133.037 60.109C131.163 61.0874 128.419 61.9835 124.986 62.7417C118.127 64.2562 108.628 65.1974 98.1174 65.1974C87.608 65.1974 78.1092 64.2562 71.251 62.7417C67.8178 61.9835 65.0735 61.0874 63.1997 60.109C62.2622 59.6196 61.5672 59.1221 61.1124 58.6313C60.66 58.1431 60.4707 57.691 60.4707 57.2736C60.4707 56.8563 60.66 56.4042 61.1124 55.9159C61.5672 55.425 62.2623 54.9274 63.1997 54.4379C65.0736 53.4594 67.8179 52.563 71.251 51.8045C78.1092 50.2894 87.608 49.3477 98.1174 49.3477C108.627 49.3477 118.126 50.2894 124.985 51.8045C128.418 52.563 131.163 53.4594 133.037 54.4379C133.975 54.9274 134.67 55.425 135.125 55.9159C135.577 56.4042 135.766 56.8563 135.766 57.2736Z" fill="#C5D7FF" stroke="#2E51FF"/>
<mask id="path-47-inside-16_1_1727" fill="white">
<path d="M98.9157 67.5394V79.1048C98.6082 79.1048 98.2921 79.0989 97.9867 79.089V67.5394H98.9157Z"/>
</mask>
<path d="M98.9157 67.5394H99.9157V66.5394H98.9157V67.5394ZM98.9157 79.1048V80.1048H99.9157V79.1048H98.9157ZM97.9867 79.089H96.9867V80.057L97.9542 80.0884L97.9867 79.089ZM97.9867 67.5394V66.5394H96.9867V67.5394H97.9867ZM97.9157 67.5394V79.1048H99.9157V67.5394H97.9157ZM98.9157 78.1048C98.6207 78.1048 98.3155 78.0991 98.0192 78.0895L97.9542 80.0884C98.2687 80.0987 98.5957 80.1048 98.9157 80.1048V78.1048ZM98.9867 79.089V67.5394H96.9867V79.089H98.9867ZM97.9867 68.5394H98.9157V66.5394H97.9867V68.5394Z" fill="#2E51FF" fill-opacity="0.23" mask="url(#path-47-inside-16_1_1727)"/>
<mask id="path-49-inside-17_1_1727" fill="white">
<path d="M114.641 65.5882V77.8077C114.334 77.8335 114.028 77.8507 113.712 77.8701V65.5882H114.641Z"/>
</mask>
<path d="M114.641 65.5882H115.641V64.5882H114.641V65.5882ZM114.641 77.8077L114.725 78.8042L115.641 78.7273V77.8077H114.641ZM113.712 77.8701H112.712V78.9332L113.773 78.8682L113.712 77.8701ZM113.712 65.5882V64.5882H112.712V65.5882H113.712ZM113.641 65.5882V77.8077H115.641V65.5882H113.641ZM114.558 76.8112C114.264 76.8358 113.974 76.8522 113.651 76.8719L113.773 78.8682C114.082 78.8493 114.403 78.8312 114.725 78.8042L114.558 76.8112ZM114.712 77.8701V65.5882H112.712V77.8701H114.712ZM113.712 66.5882H114.641V64.5882H113.712V66.5882Z" fill="#2E51FF" fill-opacity="0.23" mask="url(#path-49-inside-17_1_1727)"/>
<mask id="path-51-inside-18_1_1727" fill="white">
<path d="M129.228 63.3931V74.9158C128.948 75.1008 128.641 75.2879 128.297 75.4621V63.3931H129.228Z"/>
</mask>
<path d="M129.228 63.3931H130.228V62.3931H129.228V63.3931ZM129.228 74.9158L129.78 75.7499L130.228 75.4533V74.9158H129.228ZM128.297 75.4621H127.297V77.0892L128.748 76.3543L128.297 75.4621ZM128.297 63.3931V62.3931H127.297V63.3931H128.297ZM128.228 63.3931V74.9158H130.228V63.3931H128.228ZM128.676 74.0818C128.419 74.2518 128.146 74.4176 127.845 74.5699L128.748 76.3543C129.136 76.1582 129.477 75.9498 129.78 75.7499L128.676 74.0818ZM129.297 75.4621V63.3931H127.297V75.4621H129.297ZM128.297 64.3931H129.228V62.3931H128.297V64.3931Z" fill="#2E51FF" fill-opacity="0.23" mask="url(#path-51-inside-18_1_1727)"/>
<mask id="path-53-inside-19_1_1727" fill="white">
<path d="M82.6746 66.5721V78.4927C82.3564 78.4647 82.051 78.4368 81.7456 78.4002V66.5742H82.6746V66.5721Z"/>
</mask>
<path d="M82.6746 78.4927L82.5871 79.4888L83.6746 79.5843V78.4927H82.6746ZM81.7456 78.4002H80.7456V79.2876L81.6267 79.3931L81.7456 78.4002ZM81.7456 66.5742V65.5742H80.7456V66.5742H81.7456ZM82.6746 66.5742V67.5742H83.6746V66.5742H82.6746ZM81.6746 66.5721V78.4927H83.6746V66.5721H81.6746ZM82.7621 77.4965C82.4446 77.4686 82.1529 77.4418 81.8645 77.4073L81.6267 79.3931C81.9491 79.4317 82.2681 79.4608 82.5871 79.4888L82.7621 77.4965ZM82.7456 78.4002V66.5742H80.7456V78.4002H82.7456ZM81.7456 67.5742H82.6746V65.5742H81.7456V67.5742ZM83.6746 66.5742V66.5721H81.6746V66.5742H83.6746Z" fill="#2E51FF" fill-opacity="0.23" mask="url(#path-53-inside-19_1_1727)"/>
<mask id="path-55-inside-20_1_1727" fill="white">
<path d="M68.7772 64.1744V75.4627C68.461 75.3896 68.1471 75.3164 67.8481 75.2412V64.1765H68.7772V64.1744Z"/>
</mask>
<path d="M68.7772 64.1744V75.4627C68.461 75.3896 68.1471 75.3164 67.8481 75.2412V64.1765H68.7772V64.1744Z" fill="#C5D7FF"/>
<path d="M68.7772 75.4627L68.5518 76.437L69.7772 76.7204V75.4627H68.7772ZM67.8481 75.2412H66.8481V76.0206L67.604 76.2109L67.8481 75.2412ZM67.8481 64.1765V63.1765H66.8481V64.1765H67.8481ZM68.7772 64.1765V65.1765H69.7772V64.1765H68.7772ZM67.7772 64.1744V75.4627H69.7772V64.1744H67.7772ZM69.0025 74.4884C68.686 74.4152 68.3807 74.3441 68.0923 74.2714L67.604 76.2109C67.9134 76.2888 68.2361 76.3639 68.5518 76.437L69.0025 74.4884ZM68.8481 75.2412V64.1765H66.8481V75.2412H68.8481ZM67.8481 65.1765H68.7772V63.1765H67.8481V65.1765ZM69.7772 64.1765V64.1744H67.7772V64.1765H69.7772Z" fill="#2E51FF" mask="url(#path-55-inside-20_1_1727)"/>
<path d="M86.6917 58.1309C86.9971 58.1675 87.3025 58.1955 87.6208 58.2234C89.4144 58.3826 91.2724 58.5245 93.1993 58.6256M86.6917 58.1309L93.1993 58.6256M86.6917 58.1309C84.739 57.946 82.8788 57.7309 81.1132 57.4729L86.6917 58.1309ZM93.1993 58.6256L93.2255 58.1263C93.223 58.1261 93.2204 58.126 93.2178 58.1258C93.2152 58.1258 93.2125 58.1257 93.2098 58.1257L93.1993 58.6256ZM65.183 37.5038H140.47V37.5075V37.5222V37.5372V37.5524V37.5678V37.5833V37.5991V37.615V37.6312V37.6475V37.664V37.6806V37.6975V37.7146V37.7318V37.7492V37.7668V37.7846V37.8025V37.8207V37.839V37.8575V37.8761V37.895V37.914V37.9332V37.9525V37.9721V37.9918V38.0116V38.0317V38.0519V38.0723V38.0928V38.1135V38.1344V38.1554V38.1766V38.198V38.2195V38.2412V38.263V38.285V38.3071V38.3294V38.3519V38.3745V38.3973V38.4202V38.4433V38.4665V38.4899V38.5134V38.5371V38.5609V38.5849V38.609V38.6333V38.6577V38.6823V38.707V38.7318V38.7568V38.7819V38.8071V38.8325V38.8581V38.8837V38.9095V38.9355V38.9616V38.9878V39.0141V39.0406V39.0672V39.0939V39.1208V39.1477V39.1749V39.2021V39.2295V39.257V39.2846V39.3123V39.3402V39.3681V39.3962V39.4244V39.4528V39.4812V39.5098V39.5385V39.5673V39.5962V39.6252V39.6544V39.6836V39.713V39.7424V39.772V39.8017V39.8315V39.8614V39.8914V39.9215V39.9517V39.982V40.0124V40.043V40.0736V40.1043V40.1351V40.166V40.197V40.2281V40.2593V40.2906V40.322V40.3535V40.385V40.4167V40.4484V40.4803V40.5122V40.5442V40.5763V40.6085V40.6408V40.6731V40.7055V40.7381V40.7707V40.8033V40.8361V40.8689V40.9018V40.9348V40.9679V41.001V41.0342V41.0675V41.1009V41.1343V41.1678V41.2013V41.235V41.2687V41.3025V41.3363V41.3702V41.4042V41.4382V41.4723V41.5064V41.5406V41.5749V41.6092V41.6436V41.6781V41.7126V41.7472V41.7818V41.8164V41.8512V41.8859V41.9208V41.9556V41.9906V42.0255V42.0605V42.0956V42.1307V42.1659V42.2011V42.2363V42.2716V42.307V42.3423V42.3777V42.4132V42.4487V42.4842V42.5198V42.5554V42.591V42.6267V42.6624V42.6981V42.7339V42.7697V42.8055V42.8413V42.8772V42.9131V42.949V42.985V43.021V43.057V43.093V43.1291V43.1651V43.2012V43.2373V43.2735V43.3096V43.3458V43.3819V43.4181V43.4543V43.4906V43.5268V43.563V43.5993V43.6355V43.6718V43.7081V43.7444V43.7807V43.8169V43.8532V43.8895V43.9259V43.9622V43.9985V44.0348V44.0711V44.1074V44.1437V44.18V44.2163V44.2526V44.2888V44.3251V44.3614V44.3976V44.4339V44.4701V44.5064V44.5426V44.5788V44.615V44.6511V44.6873V44.7234V44.7595V44.7956V44.8317V44.8678V44.9038V44.9399V44.9759V45.0118V45.0478V45.0837V45.1196V45.1555V45.1913V45.2271V45.2629V45.2987V45.3344V45.3701V45.4057V45.4414V45.477V45.5125V45.548V45.5835V45.6189V45.6543V45.6897V45.725V45.7603V45.7955V45.8307V45.8659V45.901V45.936V45.971V46.006V46.0409V46.0758V46.1106V46.1453V46.18V46.2147V46.2493V46.2838V46.3183V46.3528V46.3871V46.4215V46.4557V46.4899V46.524V46.5581V46.5921V46.6261V46.66V46.6938V46.7275V46.7612V46.7948V46.8284V46.8619V46.8953V46.9286V46.9619V46.9951V47.0282V47.0612V47.0942V47.1271V47.1599V47.1926V47.2253V47.2578V47.2903V47.3227V47.3551V47.3873V47.4195V47.4515V47.4835V47.5154V47.5472V47.579V47.6106V47.6421V47.6736V47.7049V47.7362V47.7674V47.7985V47.8294V47.8603V47.8911V47.9218V47.9524V47.9829V48.0133V48.0436V48.0737V48.1038V48.1338V48.1637V48.1934V48.2231V48.2526V48.2821V48.3114V48.3406V48.3697V48.3987V48.4276V48.4564V48.485V48.5135V48.542V48.5703V48.5985V48.6265V48.6545V48.6823V48.71V48.7376V48.765V48.7923V48.8196V48.8466V48.8736V48.9004V48.9271V48.9537V48.9801V49.0064V49.0326V49.0586V49.0845V49.1103V49.1359V49.1614V49.1868V49.212V49.2371V49.262V49.2868V49.3114V49.336V49.3603V49.3846V49.4086V49.4326V49.4563V49.48V49.5035V49.5268V49.55V49.573V49.5959V49.6187V49.6412V49.6637V49.6859V49.708V49.73V49.7518V49.7734V49.7949V49.8162V49.8373V49.8583V49.8792V49.8998V49.9203V49.9406V49.9608V49.9808V50.0006V50.0203V50.0397V50.0591V50.0782V50.0972V50.1159V50.1346V50.153V50.1713V50.1894V50.2073V50.225V50.2425V50.2599V50.2771V50.2941V50.3109V50.3275V50.344V50.3602V50.3763V50.3922V50.4079V50.4234V50.4387V50.4539V50.4688V50.4835C140.47 51.1193 140.002 51.8527 138.833 52.6491C138.566 52.8259 138.276 53.0017 137.955 53.1644L137.955 53.1642L137.942 53.1708C136.597 53.8995 134.752 54.5836 132.476 55.2126C132.235 55.2715 131.983 55.3374 131.735 55.4023C131.673 55.4185 131.611 55.4347 131.549 55.4508C129.88 55.8686 128.025 56.257 126.012 56.5859L126.012 56.5858L126.003 56.5874L125.979 56.5917C125.678 56.6464 125.39 56.6989 125.092 56.7413L125.092 56.7413L125.084 56.7426C123.344 57.0208 121.485 57.2712 119.531 57.4745L119.527 57.4749L118.604 57.5775C118.603 57.5776 118.602 57.5777 118.601 57.5778C116.825 57.7556 114.961 57.9098 113.045 58.0254L113.045 58.0253L113.033 58.0262C112.778 58.0477 112.525 58.063 112.258 58.0791C112.211 58.082 112.164 58.0848 112.116 58.0877C110.31 58.1906 108.456 58.2634 106.557 58.302C106.557 58.302 106.557 58.302 106.557 58.302L105.629 58.3192L105.625 58.3193C104.552 58.3471 103.462 58.3535 102.356 58.3535C101.589 58.3535 100.828 58.3471 100.069 58.3364V58.3363H100.062C99.761 58.3363 99.4508 58.33 99.1504 58.3194L99.1504 58.3193L99.1378 58.3191C97.4454 58.302 95.7793 58.2443 94.1532 58.1714L65.183 37.5038ZM67.3817 53.4794C67.3805 53.4788 67.3793 53.4783 67.378 53.4777L67.3742 53.476L67.1668 53.9309L67.3817 53.4794ZM68.3033 53.8996L68.295 53.8958C68.2922 53.8947 68.2894 53.8935 68.2866 53.8924L68.0958 54.3545L68.3033 53.8996ZM74.7161 55.8201C74.7156 55.82 74.715 55.8199 74.7145 55.8198C74.714 55.8197 74.7135 55.8196 74.7131 55.8194L74.6034 56.3073L74.7161 55.8201Z" fill="#C5D7FF" stroke="#2E51FF"/>
<path d="M140.47 37.002C140.47 37.4194 140.281 37.8715 139.829 38.3597C139.374 38.8505 138.679 39.348 137.741 39.8374C135.868 40.8158 133.123 41.7119 129.69 42.47C122.831 43.9846 113.332 44.9258 102.822 44.9258C92.3121 44.9258 82.8133 43.9846 75.9551 42.47C72.5219 41.7119 69.7776 40.8158 67.9038 39.8374C66.9663 39.348 66.2713 38.8505 65.8165 38.3597C65.3641 37.8715 65.1748 37.4194 65.1748 37.002C65.1748 36.5847 65.3641 36.1326 65.8165 35.6443C66.2713 35.1534 66.9664 34.6558 67.9038 34.1663C69.7777 33.1877 72.522 32.2914 75.9551 31.5329C82.8133 30.0178 92.3121 29.0761 102.822 29.0761C113.331 29.0761 122.83 30.0178 129.689 31.5329C133.122 32.2914 135.867 33.1877 137.741 34.1663C138.679 34.6558 139.374 35.1534 139.829 35.6443C140.281 36.1326 140.47 36.5847 140.47 37.002Z" fill="#C5D7FF" stroke="#2E51FF"/>
<path d="M102.82 31.0263H102.82C110.896 31.0252 118.194 31.6079 123.462 32.5455C126.1 33.015 128.204 33.5693 129.637 34.1723C130.356 34.4747 130.878 34.7777 131.211 35.0678C131.548 35.3605 131.635 35.5862 131.635 35.7414C131.635 35.8962 131.548 36.1216 131.211 36.414C130.878 36.7038 130.356 37.0065 129.638 37.3086C128.204 37.911 126.1 38.4646 123.462 38.9336C118.194 39.8701 110.896 40.4523 102.82 40.4523C94.7457 40.4523 87.4483 39.8701 82.1807 38.9336C79.5429 38.4646 77.4385 37.911 76.0053 37.3086C75.2866 37.0065 74.7652 36.7038 74.4316 36.414C74.095 36.1216 74.0082 35.8962 74.0082 35.7414C74.0082 35.5863 74.0951 35.3606 74.4318 35.0679C74.7655 34.7779 75.287 34.4749 76.0057 34.1726C77.4391 33.5698 79.5436 33.0157 82.1816 32.5463C87.4495 31.609 94.7468 31.0263 102.82 31.0263Z" fill="#C5D7FF" stroke="#2E51FF"/>
<path d="M74.6716 37.1931C78.2114 35.021 89.4696 33.4317 102.822 33.4317C116.175 33.4317 127.436 35.021 130.973 37.1931C131.726 36.7328 132.137 36.2447 132.137 35.7414C132.137 32.8618 119.014 30.5263 102.822 30.5263C86.633 30.5263 73.5103 32.8618 73.5103 35.7414C73.5081 36.2447 73.9189 36.7328 74.6716 37.1931Z" fill="#2E51FF"/>
<mask id="path-61-inside-21_1_1727" fill="white">
<path d="M103.62 47.2678V58.8332C103.312 58.8332 102.996 58.8273 102.691 58.8174V47.2678H103.62Z"/>
</mask>
<path d="M103.62 47.2678H104.62V46.2678H103.62V47.2678ZM103.62 58.8332V59.8332H104.62V58.8332H103.62ZM102.691 58.8174H101.691V59.7854L102.658 59.8168L102.691 58.8174ZM102.691 47.2678V46.2678H101.691V47.2678H102.691ZM102.62 47.2678V58.8332H104.62V47.2678H102.62ZM103.62 57.8332C103.325 57.8332 103.02 57.8275 102.723 57.8179L102.658 59.8168C102.973 59.827 103.3 59.8332 103.62 59.8332V57.8332ZM103.691 58.8174V47.2678H101.691V58.8174H103.691ZM102.691 48.2678H103.62V46.2678H102.691V48.2678Z" fill="#2E51FF" fill-opacity="0.23" mask="url(#path-61-inside-21_1_1727)"/>
<mask id="path-63-inside-22_1_1727" fill="white">
<path d="M119.345 45.3146V57.5341C119.038 57.5599 118.732 57.5772 118.416 57.5965V45.3146H119.345Z"/>
</mask>
<path d="M119.345 45.3146H120.345V44.3146H119.345V45.3146ZM119.345 57.5341L119.429 58.5306L120.345 58.4537V57.5341H119.345ZM118.416 57.5965H117.416V58.6596L118.477 58.5946L118.416 57.5965ZM118.416 45.3146V44.3146H117.416V45.3146H118.416ZM118.345 45.3146V57.5341H120.345V45.3146H118.345ZM119.262 56.5376C118.969 56.5622 118.678 56.5786 118.355 56.5984L118.477 58.5946C118.786 58.5757 119.107 58.5576 119.429 58.5306L119.262 56.5376ZM119.416 57.5965V45.3146H117.416V57.5965H119.416ZM118.416 46.3146H119.345V44.3146H118.416V46.3146Z" fill="#2E51FF" fill-opacity="0.23" mask="url(#path-63-inside-22_1_1727)"/>
<mask id="path-65-inside-23_1_1727" fill="white">
<path d="M133.932 43.1174V54.6401C133.652 54.825 133.345 55.0121 133.001 55.1863V43.1174H133.932Z"/>
</mask>
<path d="M133.932 43.1174H134.932V42.1174H133.932V43.1174ZM133.932 54.6401L134.484 55.4741L134.932 55.1776V54.6401H133.932ZM133.001 55.1863H132.001V56.8134L133.453 56.0785L133.001 55.1863ZM133.001 43.1174V42.1174H132.001V43.1174H133.001ZM132.932 43.1174V54.6401H134.932V43.1174H132.932ZM133.38 53.8061C133.123 53.976 132.85 54.1419 132.549 54.2942L133.453 56.0785C133.84 55.8824 134.182 55.6741 134.484 55.4741L133.38 53.8061ZM134.001 55.1863V43.1174H132.001V55.1863H134.001ZM133.001 44.1174H133.932V42.1174H133.001V44.1174Z" fill="#2E51FF" fill-opacity="0.23" mask="url(#path-65-inside-23_1_1727)"/>
<mask id="path-67-inside-24_1_1727" fill="white">
<path d="M87.3787 46.3005V58.221C87.0605 58.1931 86.7551 58.1651 86.4497 58.1286V46.3026H87.3787V46.3005Z"/>
</mask>
<path d="M87.3787 58.221L87.2912 59.2172L88.3787 59.3127V58.221H87.3787ZM86.4497 58.1286H85.4497V59.016L86.3308 59.1215L86.4497 58.1286ZM86.4497 46.3026V45.3026H85.4497V46.3026H86.4497ZM87.3787 46.3026V47.3026H88.3787V46.3026H87.3787ZM86.3787 46.3005V58.221H88.3787V46.3005H86.3787ZM87.4662 57.2249C87.1487 57.197 86.857 57.1702 86.5686 57.1357L86.3308 59.1215C86.6532 59.1601 86.9722 59.1892 87.2912 59.2172L87.4662 57.2249ZM87.4497 58.1286V46.3026H85.4497V58.1286H87.4497ZM86.4497 47.3026H87.3787V45.3026H86.4497V47.3026ZM88.3787 46.3026V46.3005H86.3787V46.3026H88.3787Z" fill="#2E51FF" fill-opacity="0.23" mask="url(#path-67-inside-24_1_1727)"/>
<mask id="path-69-inside-25_1_1727" fill="white">
<path d="M73.4824 43.9008V55.1891C73.1662 55.116 72.8523 55.0429 72.5533 54.9676V43.9029H73.4824V43.9008Z"/>
</mask>
<path d="M73.4824 55.1891L73.257 56.1634L74.4824 56.4468V55.1891H73.4824ZM72.5533 54.9676H71.5533V55.747L72.3092 55.9373L72.5533 54.9676ZM72.5533 43.9029V42.9029H71.5533V43.9029H72.5533ZM73.4824 43.9029V44.9029H74.4824V43.9029H73.4824ZM72.4824 43.9008V55.1891H74.4824V43.9008H72.4824ZM73.7077 54.2149C73.3912 54.1416 73.0859 54.0705 72.7975 53.9979L72.3092 55.9373C72.6186 56.0153 72.9413 56.0904 73.257 56.1634L73.7077 54.2149ZM73.5533 54.9676V43.9029H71.5533V54.9676H73.5533ZM72.5533 44.9029H73.4824V42.9029H72.5533V44.9029ZM74.4824 43.9029V43.9008H72.4824V43.9029H74.4824Z" fill="#2E51FF" fill-opacity="0.23" mask="url(#path-69-inside-25_1_1727)"/>
<path d="M27.8608 106.965C17.2472 87.7098 24.2519 63.4966 43.5069 52.8829C62.762 42.2693 86.9752 49.274 97.5889 68.529C108.203 87.7841 101.198 111.997 81.946 122.611C62.6877 133.221 38.4745 126.217 27.8608 106.965Z" fill="#C5D7FF"/>
<path d="M80.1365 122.99L80.1376 122.989C98.0252 112.107 104.311 88.9565 94.1079 70.4438C90.0531 63.0897 83.9942 57.5474 76.9853 54.121L76.9852 54.121C70.377 50.8886 62.9275 49.5372 55.5235 50.3213L55.5233 50.3213C53.1362 50.5731 50.7524 51.0479 48.407 51.7554L48.4056 51.7558C46.8258 52.2272 45.2642 52.8071 43.7241 53.4927L80.1365 122.99ZM80.1365 122.99C79.6534 123.285 79.163 123.568 78.6619 123.846C78.4904 123.94 78.3245 124.031 78.1562 124.118L78.1513 124.121M80.1365 122.99L78.1513 124.121M78.1513 124.121C77.7626 124.328 77.3767 124.525 76.984 124.72C58.2645 133.912 35.433 126.858 25.2556 108.397C15.55 90.7897 20.7675 68.9808 36.6917 57.5285L36.6917 57.5285M78.1513 124.121L36.6917 57.5285M36.6917 57.5285C37.9638 56.6134 39.2994 55.7656 40.7016 54.9944L40.7018 54.9943M36.6917 57.5285L40.7018 54.9943M40.7018 54.9943C41.2061 54.7166 41.7159 54.4489 42.2249 54.1976L42.2283 54.1959M40.7018 54.9943L42.2283 54.1959M42.2283 54.1959C42.7189 53.949 43.2211 53.7169 43.7241 53.4927L42.2283 54.1959Z" fill="white" stroke="#2E51FF"/>
<mask id="path-73-inside-26_1_1727" fill="white">
<path d="M59.9627 125.518C56.6347 125.518 53.2872 125.047 50.0011 124.098C40.8498 121.451 33.2737 115.398 28.677 107.054C24.0771 98.7094 23.0022 89.0738 25.6491 79.9224C28.2961 70.7711 34.3486 63.1949 42.6929 58.5982C59.9176 49.1015 81.6549 55.3929 91.1517 72.6142C100.645 89.8388 94.3571 111.576 77.1325 121.073C71.7837 124.017 65.9055 125.518 59.9627 125.518ZM59.853 55.1314C54.1911 55.1314 48.4549 56.5162 43.1546 59.4375C35.0361 63.9115 29.145 71.2811 26.5691 80.1871C23.9931 89.0932 25.039 98.4673 29.513 106.586C33.987 114.704 41.3566 120.595 50.2626 123.171C59.1687 125.747 68.5428 124.701 76.6612 120.224C93.421 110.985 99.5413 89.8324 90.2995 73.0726C83.9888 61.6165 72.1 55.1314 59.853 55.1314Z"/>
</mask>
<path d="M59.9627 125.518C56.6347 125.518 53.2872 125.047 50.0011 124.098C40.8498 121.451 33.2737 115.398 28.677 107.054C24.0771 98.7094 23.0022 89.0738 25.6491 79.9224C28.2961 70.7711 34.3486 63.1949 42.6929 58.5982C59.9176 49.1015 81.6549 55.3929 91.1517 72.6142C100.645 89.8388 94.3571 111.576 77.1325 121.073C71.7837 124.017 65.9055 125.518 59.9627 125.518ZM59.853 55.1314C54.1911 55.1314 48.4549 56.5162 43.1546 59.4375C35.0361 63.9115 29.145 71.2811 26.5691 80.1871C23.9931 89.0932 25.039 98.4673 29.513 106.586C33.987 114.704 41.3566 120.595 50.2626 123.171C59.1687 125.747 68.5428 124.701 76.6612 120.224C93.421 110.985 99.5413 89.8324 90.2995 73.0726C83.9888 61.6165 72.1 55.1314 59.853 55.1314Z" fill="white"/>
<path d="M50.0011 124.098L49.7233 125.058L49.7237 125.058L50.0011 124.098ZM28.677 107.054L29.5529 106.571L29.5527 106.571L28.677 107.054ZM42.6929 58.5982L43.1754 59.4741L43.1758 59.474L42.6929 58.5982ZM91.1517 72.6142L92.0275 72.1315L92.0274 72.1313L91.1517 72.6142ZM77.1325 121.073L77.6147 121.949L77.6153 121.949L77.1325 121.073ZM43.1546 59.4375L43.6372 60.3133L43.6373 60.3133L43.1546 59.4375ZM76.6612 120.224L76.1784 119.348L76.1783 119.348L76.6612 120.224ZM90.2995 73.0726L89.4236 73.5551L89.4238 73.5555L90.2995 73.0726ZM59.9627 124.518C56.7294 124.518 53.4753 124.06 50.2786 123.137L49.7237 125.058C53.0992 126.033 56.54 126.518 59.9627 126.518V124.518ZM50.279 123.137C41.3822 120.564 34.0214 114.683 29.5529 106.571L27.8011 107.536C32.5259 116.113 40.3173 122.338 49.7233 125.058L50.279 123.137ZM29.5527 106.571C25.0809 98.4589 24.0365 89.0969 26.6097 80.2003L24.6885 79.6446C21.9678 89.0507 23.0733 98.9599 27.8012 107.537L29.5527 106.571ZM26.6097 80.2003C29.1831 71.3035 35.0637 63.9427 43.1754 59.4741L42.2104 57.7224C33.6334 62.4472 27.4091 70.2386 24.6885 79.6446L26.6097 80.2003ZM43.1758 59.474C59.9166 50.2439 81.0458 56.3591 90.276 73.0971L92.0274 72.1313C82.264 54.4266 59.9186 47.959 42.2101 57.7225L43.1758 59.474ZM90.2759 73.0969C99.5029 89.8379 93.3907 110.967 76.6497 120.197L77.6153 121.949C95.3235 112.185 101.788 89.8398 92.0275 72.1315L90.2759 73.0969ZM76.6503 120.197C71.4481 123.06 65.7356 124.518 59.9627 124.518V126.518C66.0753 126.518 72.1193 124.974 77.6147 121.949L76.6503 120.197ZM59.853 54.1314C54.0271 54.1314 48.1242 55.5566 42.6719 58.5617L43.6373 60.3133C48.7857 57.4757 54.3551 56.1314 59.853 56.1314V54.1314ZM42.6719 58.5617C34.3212 63.1637 28.2581 70.7484 25.6085 79.9093L27.5297 80.465C30.032 71.8137 35.7511 64.6593 43.6372 60.3133L42.6719 58.5617ZM25.6085 79.9093C22.9588 89.07 24.0352 98.7177 28.6372 107.068L30.3888 106.103C26.0428 98.2169 25.0274 89.1163 27.5297 80.465L25.6085 79.9093ZM28.6372 107.068C33.2393 115.419 40.8239 121.482 49.9848 124.132L50.5405 122.211C41.8892 119.708 34.7348 113.989 30.3888 106.103L28.6372 107.068ZM49.9848 124.132C59.1456 126.781 68.7933 125.705 77.1441 121.1L76.1783 119.348C68.2922 123.697 59.1918 124.713 50.5405 122.211L49.9848 124.132ZM77.1439 121.1C94.3874 111.595 100.684 89.8333 91.1752 72.5898L89.4238 73.5555C98.3988 89.8315 92.4546 110.376 76.1784 119.348L77.1439 121.1ZM91.1754 72.5901C84.6812 60.8008 72.4484 54.1314 59.853 54.1314V56.1314C71.7517 56.1314 83.2964 62.4321 89.4236 73.5551L91.1754 72.5901Z" fill="#B5CCFF" mask="url(#path-73-inside-26_1_1727)"/>
<path d="M71.2283 76.8275H63.3188C64.7096 78.0449 65.7147 79.7931 66.0013 82.2279H71.2248V84.875H66.0473C65.5696 90.2754 61.6839 93.7152 55.5509 93.924C59.288 98.2096 63.3648 103.61 67.3886 109.06H62.788C59.0509 104.084 55.5509 99.4801 51.0459 94.1859V90.9053H53.6824C58.8598 90.9053 61.6379 88.5236 61.9741 84.8715H51.0459V82.2244H61.829C61.1566 79.1561 58.6192 77.6202 54.4468 77.6202H51.0424V74.1804H71.2212V76.8275H71.2283Z" fill="#2E51FF"/>
</svg>
