<svg width="82" height="135" viewBox="0 0 82 135" fill="none" xmlns="http://www.w3.org/2000/svg">
<path d="M39.375 125.625V0.375H43.625V125.625H39.375Z" fill="#C5D7FF" stroke="#2E51FF" stroke-width="0.75"/>
<path d="M24.0797 45.5353L8.6669 134.021L3.6816 133.577L19.0944 45.0916L24.0797 45.5353Z" fill="#C5D7FF" stroke="#2E51FF" stroke-width="0.75"/>
<path d="M76.0959 133.93L57.892 45.7173L62.8565 45.1814L81.0604 133.394L76.0959 133.93Z" fill="#C5D7FF" stroke="#2E51FF" stroke-width="0.75"/>
<path d="M4.22229 5.92896H75.7149C76.6124 5.92896 77.3399 6.65649 77.3399 7.55396V72.1494C77.3399 73.0469 76.6124 73.7744 75.7149 73.7744H4.22229C3.32483 73.7744 2.59729 73.0469 2.59729 72.1494V7.55396C2.59729 6.65649 3.32483 5.92896 4.22229 5.92896Z" fill="#DEE9FF" stroke="#054CCD" stroke-width="0.75"/>
<path d="M0.375 74.0283V70.7583H79.2536V74.0283H0.375Z" fill="#DEE9FF" stroke="#2E51FF" stroke-width="0.75"/>
<path d="M36.6202 8.41146V5.07764H46.9138V8.41146H36.6202Z" fill="#DEE9FF" stroke="#2E51FF" stroke-width="0.75"/>
<rect width="66.6573" height="50.9607" transform="matrix(-1 0 0 1 73.3243 14.4414)" fill="white"/>
<path d="M47.1878 17.7734H13.5274V20.7953H47.1878V17.7734Z" fill="#DEE9FF"/>
<path d="M34.4441 23.3274H13.336V25.5493H34.4441V23.3274Z" fill="#DEE9FF"/>
<path d="M22.9347 50.0625H17.5118V55.9997H22.9347V50.0625Z" fill="#2E51FF"/>
<path d="M30.6186 45.8578H25.4216V56.0005H30.6186V45.8578Z" fill="#FF7300"/>
<path d="M38.5246 41.1562H33.1016V55.9992H38.5246V41.1562Z" fill="#2E51FF"/>
<path d="M45.9861 35.9609H40.7891V55.9989H45.9861V35.9609Z" fill="#FF7300"/>
<path d="M53.8914 29.282H48.4684V55.9993H53.8914V29.282Z" fill="#2E51FF"/>
<path d="M61.5798 24.0887H56.1568V55.7536H61.5798V24.0887Z" fill="#FF7300"/>
<path d="M20.2317 28.5389C20.2317 28.5389 19.6051 34.9336 20.4103 38.4342L28.1339 38.0598C28.1339 38.0598 26.4795 31.7553 27.5072 28.9617L20.2317 28.5389Z" fill="#EBEBEB"/>
<path d="M20.2264 28.2936C20.2264 28.2936 20.2807 35.3063 20.6033 37.4467L28.5868 37.0313C28.5868 37.0313 27.8843 30.1383 28.1557 28.2971L20.2264 28.2936Z" fill="#FBDB48"/>
</svg>
