<svg width="33" height="30" viewBox="0 0 33 30" fill="none" xmlns="http://www.w3.org/2000/svg">
<path d="M7.55866 26.0444C7.99155 26.0444 8.34248 25.6935 8.34248 25.2606C8.34248 24.8277 7.99155 24.4768 7.55866 24.4768C7.12577 24.4768 6.77484 24.8277 6.77484 25.2606C6.77484 25.6935 7.12577 26.0444 7.55866 26.0444Z" fill="#263765"/>
<path d="M0.400013 13.3682C0.287246 13.3682 0.179497 13.4162 0.103568 13.4999C0.0276385 13.5836 -0.00919896 13.6953 0.00196004 13.8075L1.48641 28.8753C1.50651 29.0802 1.67845 29.2365 1.88445 29.2365H10.4299V28.4359V14.1687V13.3682H0.400013ZM7.55873 23.6755C8.43243 23.6755 9.14311 24.3862 9.14311 25.2599C9.14311 26.1336 8.43243 26.8443 7.55873 26.8443C6.68504 26.8443 5.97436 26.1336 5.97436 25.2599C5.97436 24.3862 6.68504 23.6755 7.55873 23.6755ZM6.55496 15.5158C6.55496 15.2948 6.73417 15.1156 6.95525 15.1156H7.89761C8.11869 15.1156 8.29789 15.2948 8.29789 15.5158C8.29789 15.7369 8.11869 15.9161 7.89761 15.9161H6.95525C6.73417 15.9161 6.55496 15.7369 6.55496 15.5158ZM5.61539 15.9161H2.55662C2.33554 15.9161 2.15633 15.7369 2.15633 15.5158C2.15633 15.2948 2.33554 15.1156 2.55662 15.1156H5.61539C5.83646 15.1156 6.01567 15.2948 6.01567 15.5158C6.01567 15.7369 5.83646 15.9161 5.61539 15.9161Z" fill="#263765"/>
<path d="M30.4786 10.786C31.7068 10.786 32.5001 11.6647 32.5001 13.0241C32.5001 14.0212 32.0686 14.8234 31.3976 15.2025C31.6683 15.5453 31.8503 16.0801 31.8503 16.8991C31.8503 18.0441 31.2987 18.9072 30.4519 19.1858C30.6729 19.5341 30.8153 20.0427 30.8153 20.774C30.8153 21.7516 30.3977 22.522 29.7294 22.8927C30.0125 23.3544 30.008 24.0137 30.0041 24.654L30.0035 24.8829C30.0035 26.0771 28.9562 26.9776 27.5678 26.9776L22.1721 26.9759C22.1598 26.977 22.1476 26.9776 22.1353 26.9776L22.0481 26.9774L14.9319 26.9776C14.8693 26.9776 14.8046 26.982 14.7387 26.9871C14.6561 26.9926 14.5684 26.9982 14.478 26.9982C14.3574 26.9982 14.2318 26.9876 14.104 26.9519C13.8806 26.8883 13.683 26.7604 13.5088 26.6482L13.3871 26.5712C13.1013 26.3953 12.8238 26.2083 12.5469 26.0207L12.4236 25.9336C12.2633 25.8181 12.1868 25.7672 12.1048 25.7723C11.8125 25.778 11.5217 25.7809 11.2305 25.7834V24.9827V14.6304L11.215 13.6932C11.7648 13.3427 12.2719 13.0072 12.4241 12.8846C12.5983 12.5105 12.8227 12.1594 13.0404 11.8188C13.1443 11.6569 13.247 11.4961 13.3425 11.3359L15.4421 7.80988C15.5415 7.64407 15.6459 7.47882 15.7509 7.31301C15.9507 6.99703 16.1522 6.67993 16.3169 6.35055C16.4213 6.17357 16.4208 5.99717 16.4124 5.72138L16.4052 1.92345C16.4046 1.31549 16.907 0.89065 17.2398 0.609834C17.6775 0.23858 18.1704 0.0286742 18.6645 0.00243452C19.062 -0.0159847 19.4701 0.0699823 19.8854 0.264819C20.0981 0.364747 20.2991 0.486456 20.4906 0.621553L20.6201 0.708082C20.8428 0.853229 21.1209 1.03356 21.2325 1.44723C21.4614 2.29524 21.6696 3.06566 21.8628 3.83998L21.9438 4.15596C22.0666 4.63441 22.1939 5.12903 22.2463 5.63538C22.3239 6.38848 21.5602 9.4361 21.1075 10.8005L30.4786 10.786Z" fill="#263765"/>
</svg>
