<svg width="38" height="32" viewBox="0 0 38 32" fill="none" xmlns="http://www.w3.org/2000/svg">
<path d="M24.9996 7C24.9996 8.5913 24.3675 10.1174 23.2422 11.2426C22.117 12.3679 20.5909 13 18.9996 13C17.4083 13 15.8822 12.3679 14.757 11.2426C13.6317 10.1174 12.9996 8.5913 12.9996 7C12.9996 5.4087 13.6317 3.88258 14.757 2.75736C15.8822 1.63214 17.4083 1 18.9996 1C20.5909 1 22.117 1.63214 23.2422 2.75736C24.3675 3.88258 24.9996 5.4087 24.9996 7Z" fill="#263765" stroke="#263765" stroke-width="0.7"/>
<path d="M35.0001 11C35.0001 12.0609 34.5786 13.0783 33.8285 13.8284C33.0783 14.5786 32.0609 15 31.0001 15C29.9392 15 28.9218 14.5786 28.1716 13.8284C27.4215 13.0783 27.0001 12.0609 27.0001 11C27.0001 9.93913 27.4215 8.92172 28.1716 8.17157C28.9218 7.42143 29.9392 7 31.0001 7C32.0609 7 33.0783 7.42143 33.8285 8.17157C34.5786 8.92172 35.0001 9.93913 35.0001 11Z" fill="#263765" stroke="#263765" stroke-width="0.7"/>
<path d="M26.9998 25C26.9998 22.8783 26.1569 20.8434 24.6567 19.3431C23.1564 17.8429 21.1215 17 18.9998 17C16.8781 17 14.8432 17.8429 13.3429 19.3431C11.8427 20.8434 10.9998 22.8783 10.9998 25V31H26.9998V25Z" fill="#263765" stroke="#263765" stroke-width="0.7"/>
<path d="M10.9996 11C10.9996 12.0609 10.5782 13.0783 9.82803 13.8284C9.07789 14.5786 8.06047 15 6.99961 15C5.93874 15 4.92132 14.5786 4.17118 13.8284C3.42103 13.0783 2.99961 12.0609 2.99961 11C2.99961 9.93913 3.42103 8.92172 4.17118 8.17157C4.92132 7.42143 5.93874 7 6.99961 7C8.06047 7 9.07789 7.42143 9.82803 8.17157C10.5782 8.92172 10.9996 9.93913 10.9996 11Z" fill="#263765" stroke="#263765" stroke-width="0.7"/>
<path d="M31.0001 30.9999V24.9999C31.003 22.9664 30.4866 20.9659 29.5001 19.1879C30.3868 18.961 31.3136 18.9396 32.2098 19.1253C33.106 19.3111 33.948 19.6991 34.6714 20.2597C35.3949 20.8203 35.9808 21.5388 36.3843 22.3603C36.7879 23.1818 36.9985 24.0846 37.0001 24.9999V30.9999H31.0001Z" fill="#263765" stroke="#263765" stroke-width="0.7"/>
<path d="M8.4998 19.1871C7.5133 20.9652 6.997 22.9657 6.9998 24.9991V30.9991H0.999802V24.9991C0.999417 24.0832 1.20873 23.1793 1.6117 22.3568C2.01466 21.5343 2.60059 20.815 3.32457 20.2539C4.04855 19.6929 4.89136 19.3051 5.78842 19.1201C6.68548 18.9352 7.61297 18.9581 8.4998 19.1871Z" fill="#263765" stroke="#263765" stroke-width="0.7"/>
</svg>
