<svg width="142" height="122" viewBox="0 0 142 122" fill="none" xmlns="http://www.w3.org/2000/svg">
<path d="M92.5006 107.452C92.5006 111.826 88.9605 115.37 84.5939 115.37H7.90677C3.54011 115.37 0 111.824 0 107.452V7.92006C0 3.54606 3.54011 0 7.90677 0H84.5939C88.9605 0 92.5006 3.54606 92.5006 7.92006V107.452Z" fill="white"/>
<path d="M91.654 15.9104V7.98736C91.654 4.06239 88.2085 0.880371 83.9585 0.880371H9.32094C5.07099 0.880371 1.62549 4.06239 1.62549 7.98736V15.9104H91.654Z" fill="#DEE9FF"/>
<path d="M84.6416 28.1311H40.8145V32.0723H84.6416V28.1311Z" fill="#DEE9FF"/>
<path d="M84.6416 36.2483H40.8145V40.1875H84.6416V36.2483Z" fill="#DEE9FF"/>
<path d="M59.2861 44.9192H40.5649V48.0446H59.2861V44.9192Z" fill="#DEE9FF"/>
<path d="M31.2018 26.5681H7.80029V50.0089H31.2018V26.5681Z" fill="#DEE9FF"/>
<path d="M36.7612 64.4066C36.2506 64.1747 35.6604 64.4397 35.4656 64.9655L30.8787 77.3404C30.6976 77.829 30.9293 78.3669 31.3573 78.6642C31.9199 79.055 32.4166 79.5603 32.8098 80.1731C33.4183 81.1205 33.693 82.1891 33.6638 83.2363C33.6518 83.6637 33.8503 84.0826 34.2276 84.2836L46.1598 90.6416C46.6775 90.9174 47.3226 90.6909 47.5234 90.1397C49.6447 84.3175 49.1195 77.604 45.5153 71.9889C43.3013 68.5429 40.2289 65.9817 36.7612 64.4066Z" fill="#FF7300"/>
<path d="M26.3978 78.0412C27.0221 77.8069 27.6723 77.6958 28.3185 77.6997L33.6623 63.2872C28.6019 61.9112 23.038 62.4731 18.1798 65.2389L26.3978 78.0412Z" fill="#DEE9FF"/>
<path d="M32.7585 86.0829C32.3601 86.6785 31.8368 87.2067 31.1966 87.6197C28.6971 89.2299 25.3691 88.5052 23.7616 86.0035C22.3642 83.8294 22.7289 81.0299 24.485 79.2747L16.2671 66.4744C7.51593 72.814 5.14528 84.979 11.058 94.1876C17.1789 103.718 29.8527 106.476 39.3689 100.347C42.2629 98.4822 44.5324 96.0083 46.1162 93.2008L32.7585 86.0829Z" fill="#2E51FF"/>
<path d="M92.0006 107.452C92.0006 111.551 88.6837 114.87 84.5939 114.87H7.90677C3.81696 114.87 0.5 111.549 0.5 107.452V7.92055C0.5 3.8219 3.81704 0.500488 7.90677 0.500488H84.5939C88.6836 0.500488 92.0006 3.8219 92.0006 7.92055V107.452Z" stroke="#2E51FF"/>
<path d="M65.7251 120.444V75.6694H79.0803V120.444H65.7251Z" fill="#C5D7FF" stroke="#2E51FF"/>
<path d="M85.9243 120.501V61.8611H99.2796V120.501H85.9243Z" fill="#C5D7FF" stroke="#2E51FF"/>
<path d="M106.06 120.445V46.0455H120.774V120.445H106.06Z" fill="#C5D7FF" stroke="#2E51FF"/>
<path d="M127.91 120.445V35.5766H141.265V120.445H127.91Z" fill="#C5D7FF" stroke="#2E51FF"/>
</svg>
