<svg width="40" height="40" viewBox="0 0 40 40" fill="none" xmlns="http://www.w3.org/2000/svg">
<path d="M15.1524 36.8805C15.1524 37.304 15.1426 37.7406 15.1426 38.164C15.1426 38.2461 15.136 38.3183 15.136 38.4168H5.79688C5.79688 38.4168 5.80672 29.2845 5.80672 26.8586C5.80672 26.5336 6.06933 26.271 6.39432 26.271H14.5484C14.8734 26.271 15.136 26.5336 15.136 26.8586L15.1524 36.8805Z" fill="#263765"/>
<path d="M13.707 19.9965C13.707 21.4244 13.707 24.9565 13.707 24.9565H15.0923C15.1022 24.9565 15.1087 24.9533 15.1186 24.9565C15.1317 24.9565 15.1448 24.9565 15.158 24.9565C15.1645 24.9565 15.1711 24.9565 15.1809 24.9565H15.1842C15.1875 24.9565 15.1908 24.9565 15.1941 24.9565H15.1974C15.2039 24.9565 15.2105 24.9565 15.217 24.9598C15.2203 24.9598 15.2236 24.9598 15.2269 24.9598C15.2367 24.9598 15.2433 24.9631 15.2532 24.9631C15.263 24.9631 15.2729 24.9664 15.2827 24.9664C15.286 24.9664 15.2926 24.9664 15.2958 24.9697C15.3057 24.9697 15.3155 24.9729 15.3254 24.9729C15.5059 25.0025 15.6766 25.0616 15.8309 25.1502C15.8309 25.1502 15.8342 25.1502 15.8342 25.1535C15.8604 25.1699 15.8867 25.1863 15.913 25.2027L15.9163 25.206C15.9425 25.2224 15.9655 25.2421 15.9885 25.2618C16.0279 25.2946 16.0673 25.3275 16.1034 25.3669C16.2478 25.5146 16.3594 25.7017 16.4119 25.9216C16.4316 26.0004 16.4415 26.0759 16.448 26.1547C16.448 26.1613 16.4513 26.1678 16.4513 26.1744C16.4513 26.1777 16.4513 26.181 16.4513 26.1842C16.4546 26.2072 16.4579 26.2302 16.4579 26.2532C16.4579 26.2597 16.4612 26.2663 16.4612 26.2729V38.4187H23.0429C23.0429 38.1528 23.0462 37.8935 23.0494 37.6374C23.0494 37.5455 23.0527 37.4503 23.0527 37.3584C23.0527 37.3485 23.0527 37.342 23.0527 37.3321C23.056 36.9054 23.0593 36.4819 23.0593 36.0552C23.0593 36.0552 23.0593 22.9541 23.0593 19.9997C23.0593 19.6748 22.7967 19.4121 22.4717 19.4121C20.791 19.4121 15.9721 19.4121 14.2913 19.4121C13.9696 19.4089 13.707 19.6715 13.707 19.9965Z" fill="#263765"/>
<path d="M30.8461 12.5547C31.1711 12.5547 31.4337 12.8173 31.4337 13.1423V37.9821C31.4337 38.1232 31.4271 38.2546 31.4238 38.4187H24.8356V21.8118C24.8356 21.1224 24.8454 20.4298 24.8388 19.7404C24.8388 19.7371 24.8388 19.7338 24.8388 19.7306C24.8388 19.701 24.8388 19.6682 24.8388 19.6386C24.8388 19.5566 24.8356 19.4745 24.8323 19.3924C24.8323 19.3924 24.8323 19.3892 24.8323 19.3859C24.8323 19.3826 24.8356 19.376 24.8356 19.3728C24.8356 19.3563 24.8356 19.3432 24.8356 19.3268C24.8356 19.3071 24.829 19.2874 24.8257 19.2677C24.8224 19.248 24.8191 19.2316 24.8159 19.2119C24.806 19.1561 24.7929 19.1003 24.7765 19.0478C24.7666 19.0117 24.7535 18.9756 24.7404 18.9427C24.7338 18.9263 24.7272 18.9066 24.7174 18.8902C24.7141 18.8836 24.7141 18.8804 24.7108 18.8738C24.7075 18.8705 24.7075 18.8639 24.7042 18.8607C24.7042 18.8574 24.701 18.8574 24.701 18.8541C24.6977 18.8475 24.6944 18.841 24.6911 18.8311V18.8278C24.6878 18.8213 24.6845 18.8114 24.6813 18.8049V18.8016C24.678 18.7917 24.6714 18.7819 24.6649 18.7753C24.481 18.4372 24.1626 18.191 23.7588 18.1221H23.7556C23.7424 18.1188 23.7293 18.1188 23.7129 18.1155C23.6505 18.1056 23.5881 18.0991 23.5225 18.0991C23.4306 18.0958 23.3387 18.0991 23.2467 18.0991H22.0781C22.0781 18.0991 22.0781 14.5702 22.0781 13.1423C22.0781 12.8173 22.3407 12.5547 22.6657 12.5547C24.3464 12.5547 29.1588 12.558 30.8461 12.5547Z" fill="#263765"/>
<path d="M33.621 39.7296H3.204C2.83634 39.7296 2.56388 39.4276 2.54747 39.073C2.53105 38.7185 2.85932 38.4165 3.204 38.4165H33.621C33.9887 38.4165 34.2611 38.7185 34.2776 39.073C34.294 39.4276 33.9624 39.7296 33.621 39.7296Z" fill="#263765"/>
<path d="M0.828819 39.5424C0.828819 39.5424 22.4981 35.2559 35.7552 14.8916L34.1506 14.372C33.7072 14.2284 33.5993 13.6427 33.9621 13.3472L38.9198 9.31155C39.2959 9.00516 39.8549 9.27925 39.8512 9.76817L39.8012 16.2932C39.798 16.7286 39.3064 16.9744 38.9628 16.7124L37.8572 15.8363C37.8572 15.8363 31.3477 34.9898 17.9572 39.5931L0.828819 39.5424Z" fill="#263765" stroke="white"/>
<path d="M29.8738 0.534946V0.427082C29.8738 0.190947 29.6823 0 29.4455 0H23.9334C23.7697 0 23.6367 0.132643 23.6367 0.295897V1.2244C23.6367 1.41972 23.7946 1.57714 23.9905 1.57714H24.0635C24.7008 1.57714 25.17 1.67043 25.4741 1.85701C25.6509 1.96633 25.7752 2.11938 25.8497 2.3147H24.065C23.8282 2.3147 23.6367 2.50565 23.6367 2.74178V2.91232C23.6367 3.14846 23.8282 3.33941 24.065 3.33941H25.8337C25.7591 3.51869 25.6451 3.66445 25.4858 3.77669C25.189 3.98367 24.7271 4.08716 24.103 4.08716H24.065C23.8282 4.08716 23.6367 4.27811 23.6367 4.51425V5.26201C23.6367 5.49814 23.8282 5.68909 24.065 5.68909H24.5167L26.6142 9.05182C26.6917 9.17717 26.8291 9.25297 26.9782 9.25297H28.1198C28.4633 9.25297 28.6679 8.87107 28.4735 8.58684C27.9707 7.85074 27.2106 6.724 26.1918 5.20662C26.7443 4.96465 27.1711 4.63231 27.4722 4.20669C27.6593 3.9414 27.7894 3.65279 27.8596 3.34086H29.447C29.6838 3.34086 29.8753 3.14991 29.8753 2.91378V2.74324C29.8753 2.5071 29.6838 2.31616 29.447 2.31616H27.8976C27.8347 1.76809 27.6491 1.31769 27.3392 0.963485H29.447C29.6823 0.962027 29.8738 0.771081 29.8738 0.534946Z" fill="#263765"/>
</svg>
